<svg xmlns="http://www.w3.org/2000/svg" xmlns:xlink="http://www.w3.org/1999/xlink" viewBox="0 0 512 512" width="512" height="512" style="width: 100%; height: 100%; transform: translate3d(0,0,0);" preserveAspectRatio="xMidYMid meet"><defs><clipPath id="__lottie_element_14"><rect width="512" height="512" x="0" y="0"></rect></clipPath><clipPath id="__lottie_element_16"><path d="M0,0 L24,0 L24,24 L0,24z"></path></clipPath><linearGradient id="__lottie_element_22" spreadMethod="pad" gradientUnits="userSpaceOnUse" x1="3.878999948501587" y1="3.878999948501587" x2="20.121000289916992" y2="20.121000289916992"><stop offset="0%" stop-color="rgb(255,255,255)" stop-opacity="0.6000000238418579"></stop><stop offset="100%" stop-color="rgb(255,255,255)" stop-opacity="0.30000001192092896"></stop></linearGradient><linearGradient id="__lottie_element_23" spreadMethod="pad" gradientUnits="userSpaceOnUse" x1="3.878999948501587" y1="3.878999948501587" x2="20.121000289916992" y2="20.121000289916992"><stop offset="0%" stop-color="rgb(255,255,255)" stop-opacity="0.6000000238418579"></stop><stop offset="49%" stop-color="rgb(255,255,255)" stop-opacity="0"></stop><stop offset="100%" stop-color="rgb(255,255,255)" stop-opacity="0.30000001192092896"></stop></linearGradient><linearGradient id="__lottie_element_24" spreadMethod="pad" gradientUnits="userSpaceOnUse" x1="7.583000183105469" y1="5.010000228881836" x2="16.41699981689453" y2="13.845000267028809"><stop offset="0%" stop-color="rgb(255,255,255)" stop-opacity="0.699999988079071"></stop><stop offset="52%" stop-color="rgb(255,255,255)" stop-opacity="0.44999998807907104"></stop><stop offset="100%" stop-color="rgb(255,255,255)" stop-opacity="0.550000011920929"></stop></linearGradient></defs><g clip-path="url(#__lottie_element_14)"><g clip-path="url(#__lottie_element_16)" style="display: block;" transform="matrix(21.33333396911621,0,0,21.33333396911621,0,0)" opacity="1"><g style="display: block;" transform="matrix(1,0,0,1,0,0)" opacity="1"><g opacity="1" transform="matrix(1,0,0,1,0,0)"><g opacity="1" transform="matrix(1,0,0,1,0,0)"><path fill="url(#__lottie_element_22)" fill-opacity="1" d=" M18,21 C18,21 6,21 6,21 C4.3429999351501465,21 3,19.656999588012695 3,18 C3,18 3,6 3,6 C3,4.3429999351501465 4.3429999351501465,3 6,3 C6,3 18,3 18,3 C19.656999588012695,3 21,4.3429999351501465 21,6 C21,6 21,18 21,18 C21,19.656999588012695 19.656999588012695,21 18,21 C18,21 18,21 18,21z"></path></g><g opacity="1" transform="matrix(1,0,0,1,0,0)"><path fill="url(#__lottie_element_23)" fill-opacity="1" d=" M18,3 C18,3 6,3 6,3 C4.3429999351501465,3 3,4.3429999351501465 3,6 C3,6 3,18 3,18 C3,19.656999588012695 4.3429999351501465,21 6,21 C6,21 18,21 18,21 C19.656999588012695,21 21,19.656999588012695 21,18 C21,18 21,6 21,6 C21,4.3429999351501465 19.656999588012695,3 18,3 C18,3 18,3 18,3 C18,3 18,3 18,3z M18,3.5 C19.378999710083008,3.5 20.5,4.620999813079834 20.5,6 C20.5,6 20.5,18 20.5,18 C20.5,19.378999710083008 19.378999710083008,20.5 18,20.5 C18,20.5 6,20.5 6,20.5 C4.620999813079834,20.5 3.5,19.378999710083008 3.5,18 C3.5,18 3.5,6 3.5,6 C3.5,4.620999813079834 4.620999813079834,3.5 6,3.5 C6,3.5 18,3.5 18,3.5"></path></g></g><g opacity="1" transform="matrix(1,0,0,1,0,0)"><path fill="url(#__lottie_element_24)" fill-opacity="1" d=" M16.131000518798828,12 C16.131000518798828,12 14,12 14,12 C14,12 14,3.4210000038146973 14,3.4210000038146973 C14,2.315999984741211 13.104999542236328,1.4210000038146973 12,1.4210000038146973 C10.895000457763672,1.4210000038146973 10,2.315999984741211 10,3.4210000038146973 C10,3.4210000038146973 10,12 10,12 C10,12 7.86899995803833,12 7.86899995803833,12 C7.0980000495910645,12 6.710000038146973,12.930000305175781 7.252999782562256,13.477999687194824 C7.252999782562256,13.477999687194824 11.109000205993652,17.371000289916992 11.109000205993652,17.371000289916992 C11.600000381469727,17.865999221801758 12.399999618530273,17.865999221801758 12.890999794006348,17.371000289916992 C12.890999794006348,17.371000289916992 16.746999740600586,13.477999687194824 16.746999740600586,13.477999687194824 C17.290000915527344,12.930000305175781 16.902000427246094,12 16.131000518798828,12 C16.131000518798828,12 16.131000518798828,12 16.131000518798828,12z"></path></g></g></g></g></svg>