<svg xmlns="http://www.w3.org/2000/svg" xmlns:xlink="http://www.w3.org/1999/xlink" viewBox="0 0 512 512" width="512" height="512" style="width: 100%; height: 100%; transform: translate3d(0,0,0);" preserveAspectRatio="xMidYMid meet"><defs><clipPath id="__lottie_element_175"><rect width="512" height="512" x="0" y="0"></rect></clipPath><clipPath id="__lottie_element_177"><path d="M0,0 L24,0 L24,24 L0,24z"></path></clipPath><linearGradient id="__lottie_element_183" spreadMethod="pad" gradientUnits="userSpaceOnUse" x1="4.928999900817871" y1="4.928999900817871" x2="19.070999145507812" y2="19.070999145507812"><stop offset="0%" stop-color="rgb(255,255,255)" stop-opacity="0.6000000238418579"></stop><stop offset="100%" stop-color="rgb(255,255,255)" stop-opacity="0.30000001192092896"></stop></linearGradient><linearGradient id="__lottie_element_184" spreadMethod="pad" gradientUnits="userSpaceOnUse" x1="4.928999900817871" y1="4.928999900817871" x2="19.070999145507812" y2="19.070999145507812"><stop offset="0%" stop-color="rgb(255,255,255)" stop-opacity="0.6000000238418579"></stop><stop offset="49%" stop-color="rgb(255,255,255)" stop-opacity="0"></stop><stop offset="100%" stop-color="rgb(255,255,255)" stop-opacity="0.30000001192092896"></stop></linearGradient><linearGradient id="__lottie_element_185" spreadMethod="pad" gradientUnits="userSpaceOnUse" x1="9.340999603271484" y1="8.847999572753906" x2="14.656000137329102" y2="14.163999557495117"><stop offset="0%" stop-color="rgb(255,255,255)" stop-opacity="0.699999988079071"></stop><stop offset="52%" stop-color="rgb(255,255,255)" stop-opacity="0.44999998807907104"></stop><stop offset="100%" stop-color="rgb(255,255,255)" stop-opacity="0.550000011920929"></stop></linearGradient><linearGradient id="__lottie_element_186" spreadMethod="pad" gradientUnits="userSpaceOnUse" x1="16.34000015258789" y1="8.847999572753906" x2="21.6560001373291" y2="14.163999557495117"><stop offset="0%" stop-color="rgb(255,255,255)" stop-opacity="0.699999988079071"></stop><stop offset="52%" stop-color="rgb(255,255,255)" stop-opacity="0.44999998807907104"></stop><stop offset="100%" stop-color="rgb(255,255,255)" stop-opacity="0.550000011920929"></stop></linearGradient><linearGradient id="__lottie_element_187" spreadMethod="pad" gradientUnits="userSpaceOnUse" x1="2.3410000801086426" y1="8.847999572753906" x2="7.656000137329102" y2="14.163999557495117"><stop offset="0%" stop-color="rgb(255,255,255)" stop-opacity="0.699999988079071"></stop><stop offset="52%" stop-color="rgb(255,255,255)" stop-opacity="0.44999998807907104"></stop><stop offset="100%" stop-color="rgb(255,255,255)" stop-opacity="0.550000011920929"></stop></linearGradient></defs><g clip-path="url(#__lottie_element_175)"><g clip-path="url(#__lottie_element_177)" style="display: block;" transform="matrix(21.33333396911621,0,0,21.33333396911621,0,0)" opacity="1"><g style="display: block;" transform="matrix(1,0,0,1,0,0)" opacity="1"><g opacity="1" transform="matrix(1,0,0,1,0,0)"><g opacity="1" transform="matrix(1,0,0,1,0,0)"><path fill="url(#__lottie_element_183)" fill-opacity="1" d=" M12,2 C17.518999099731445,2 22,6.480999946594238 22,12 C22,17.518999099731445 17.518999099731445,22 12,22 C6.480999946594238,22 2,17.518999099731445 2,12 C2,6.480999946594238 6.480999946594238,2 12,2z"></path></g><g opacity="1" transform="matrix(1,0,0,1,0,0)"><path fill="url(#__lottie_element_184)" fill-opacity="1" d=" M12,2 C6.4770002365112305,2 2,6.4770002365112305 2,12 C2,17.523000717163086 6.4770002365112305,22 12,22 C17.523000717163086,22 22,17.523000717163086 22,12 C22,6.4770002365112305 17.523000717163086,2 12,2 C12,2 12,2 12,2 C12,2 12,2 12,2z M12,2.5 C17.238000869750977,2.5 21.5,6.76200008392334 21.5,12 C21.5,17.238000869750977 17.238000869750977,21.5 12,21.5 C6.76200008392334,21.5 2.5,17.238000869750977 2.5,12 C2.5,6.76200008392334 6.76200008392334,2.5 12,2.5"></path></g></g><g opacity="1" transform="matrix(1,0,0,1,0,0)"><g opacity="1" transform="matrix(1,0,0,1,0,0)"><path fill="url(#__lottie_element_185)" fill-opacity="1" d=" M13.461999893188477,15 C13.461999893188477,15 13.458000183105469,15 13.458000183105469,15 C13.039999961853027,15 12.682000160217285,14.70199966430664 12.607000350952148,14.291000366210938 C12.607000350952148,14.291000366210938 12,10.975000381469727 12,10.975000381469727 C12,10.975000381469727 11.982999801635742,10.975000381469727 11.982999801635742,10.975000381469727 C11.982999801635742,10.975000381469727 11.381999969482422,14.289999961853027 11.381999969482422,14.289999961853027 C11.307999610900879,14.701000213623047 10.949999809265137,15 10.531999588012695,15 C10.531999588012695,15 10.531999588012695,15 10.531999588012695,15 C10.116000175476074,15 9.758999824523926,14.704000473022461 9.682000160217285,14.295000076293945 C9.682000160217285,14.295000076293945 8.82800006866455,9.751999855041504 8.82800006866455,9.751999855041504 C8.755000114440918,9.361000061035156 9.053999900817871,9 9.45199966430664,9 C9.45199966430664,9 9.520999908447266,9 9.520999908447266,9 C9.835000038146973,9 10.10200023651123,9.229999542236328 10.14900016784668,9.541000366210938 C10.14900016784668,9.541000366210938 10.687999725341797,13.177000045776367 10.687999725341797,13.177000045776367 C10.687999725341797,13.177000045776367 10.722000122070312,13.177000045776367 10.722000122070312,13.177000045776367 C10.722000122070312,13.177000045776367 11.27299976348877,9.649999618530273 11.27299976348877,9.649999618530273 C11.329999923706055,9.276000022888184 11.652999877929688,9 12.031999588012695,9 C12.031999588012695,9 12.031999588012695,9 12.031999588012695,9 C12.409000396728516,9 12.730999946594238,9.27299976348877 12.791000366210938,9.645999908447266 C12.791000366210938,9.645999908447266 13.364999771118164,13.178000450134277 13.364999771118164,13.178000450134277 C13.364999771118164,13.178000450134277 13.390000343322754,13.178000450134277 13.390000343322754,13.178000450134277 C13.390000343322754,13.178000450134277 13.920999526977539,9.543000221252441 13.920999526977539,9.543000221252441 C13.965999603271484,9.230999946594238 14.232999801635742,9 14.54800033569336,9 C14.54800033569336,9 14.54800033569336,9 14.54800033569336,9 C14.946000099182129,9 15.244999885559082,9.362000465393066 15.170999526977539,9.751999855041504 C15.170999526977539,9.751999855041504 14.310999870300293,14.295000076293945 14.310999870300293,14.295000076293945 C14.234999656677246,14.704000473022461 13.878000259399414,15 13.461999893188477,15 C13.461999893188477,15 13.461999893188477,15 13.461999893188477,15z"></path></g></g><g opacity="1" transform="matrix(1,0,0,1,0,0)"><g opacity="1" transform="matrix(1,0,0,1,0,0)"><path fill="url(#__lottie_element_186)" fill-opacity="1" d=" M20.461999893188477,15 C20.461999893188477,15 20.45800018310547,15 20.45800018310547,15 C20.040000915527344,15 19.68199920654297,14.70199966430664 19.60700035095215,14.291000366210938 C19.60700035095215,14.291000366210938 19,10.975000381469727 19,10.975000381469727 C19,10.975000381469727 18.982999801635742,10.975000381469727 18.982999801635742,10.975000381469727 C18.982999801635742,10.975000381469727 18.381999969482422,14.289999961853027 18.381999969482422,14.289999961853027 C18.308000564575195,14.701000213623047 17.950000762939453,15 17.531999588012695,15 C17.531999588012695,15 17.531999588012695,15 17.531999588012695,15 C17.115999221801758,15 16.759000778198242,14.704000473022461 16.68199920654297,14.295000076293945 C16.68199920654297,14.295000076293945 15.829000473022461,9.751999855041504 15.829000473022461,9.751999855041504 C15.755000114440918,9.361000061035156 16.054000854492188,9 16.45199966430664,9 C16.45199966430664,9 16.520999908447266,9 16.520999908447266,9 C16.834999084472656,9 17.101999282836914,9.229999542236328 17.14900016784668,9.541000366210938 C17.14900016784668,9.541000366210938 17.687999725341797,13.177000045776367 17.687999725341797,13.177000045776367 C17.687999725341797,13.177000045776367 17.722000122070312,13.177000045776367 17.722000122070312,13.177000045776367 C17.722000122070312,13.177000045776367 18.273000717163086,9.649999618530273 18.273000717163086,9.649999618530273 C18.329999923706055,9.276000022888184 18.652999877929688,9 19.031999588012695,9 C19.031999588012695,9 19.031999588012695,9 19.031999588012695,9 C19.409000396728516,9 19.731000900268555,9.27299976348877 19.791000366210938,9.645999908447266 C19.791000366210938,9.645999908447266 20.364999771118164,13.178000450134277 20.364999771118164,13.178000450134277 C20.364999771118164,13.178000450134277 20.389999389648438,13.178000450134277 20.389999389648438,13.178000450134277 C20.389999389648438,13.178000450134277 20.92099952697754,9.543000221252441 20.92099952697754,9.543000221252441 C20.965999603271484,9.230999946594238 21.232999801635742,9 21.54800033569336,9 C21.54800033569336,9 21.54800033569336,9 21.54800033569336,9 C21.945999145507812,9 22.2450008392334,9.362000465393066 22.17099952697754,9.751999855041504 C22.17099952697754,9.751999855041504 21.31100082397461,14.295000076293945 21.31100082397461,14.295000076293945 C21.235000610351562,14.704000473022461 20.878000259399414,15 20.461999893188477,15 C20.461999893188477,15 20.461999893188477,15 20.461999893188477,15z"></path></g></g><g opacity="1" transform="matrix(1,0,0,1,0,0)"><g opacity="1" transform="matrix(1,0,0,1,0,0)"><path fill="url(#__lottie_element_187)" fill-opacity="1" d=" M6.461999893188477,15 C6.461999893188477,15 6.458000183105469,15 6.458000183105469,15 C6.039999961853027,15 5.682000160217285,14.70199966430664 5.60699987411499,14.291000366210938 C5.60699987411499,14.291000366210938 5,10.975000381469727 5,10.975000381469727 C5,10.975000381469727 4.984000205993652,10.975000381469727 4.984000205993652,10.975000381469727 C4.984000205993652,10.975000381469727 4.382999897003174,14.289999961853027 4.382999897003174,14.289999961853027 C4.308000087738037,14.701000213623047 3.950000047683716,15 3.5320000648498535,15 C3.5320000648498535,15 3.5320000648498535,15 3.5320000648498535,15 C3.115999937057495,15 2.759000062942505,14.704000473022461 2.681999921798706,14.295000076293945 C2.681999921798706,14.295000076293945 1.8279999494552612,9.751999855041504 1.8279999494552612,9.751999855041504 C1.7549999952316284,9.361000061035156 2.053999900817871,9 2.4519999027252197,9 C2.4519999027252197,9 2.5209999084472656,9 2.5209999084472656,9 C2.8350000381469727,9 3.1019999980926514,9.229999542236328 3.1489999294281006,9.541000366210938 C3.1489999294281006,9.541000366210938 3.687999963760376,13.177000045776367 3.687999963760376,13.177000045776367 C3.687999963760376,13.177000045776367 3.7219998836517334,13.177000045776367 3.7219998836517334,13.177000045776367 C3.7219998836517334,13.177000045776367 4.271999835968018,9.649999618530273 4.271999835968018,9.649999618530273 C4.329999923706055,9.276000022888184 4.6529998779296875,9 5.0320000648498535,9 C5.0320000648498535,9 5.0320000648498535,9 5.0320000648498535,9 C5.408999919891357,9 5.730000019073486,9.27299976348877 5.790999889373779,9.645999908447266 C5.790999889373779,9.645999908447266 6.364999771118164,13.178000450134277 6.364999771118164,13.178000450134277 C6.364999771118164,13.178000450134277 6.389999866485596,13.178000450134277 6.389999866485596,13.178000450134277 C6.389999866485596,13.178000450134277 6.921000003814697,9.543000221252441 6.921000003814697,9.543000221252441 C6.966000080108643,9.230999946594238 7.232999801635742,9 7.547999858856201,9 C7.547999858856201,9 7.547999858856201,9 7.547999858856201,9 C7.946000099182129,9 8.244999885559082,9.362000465393066 8.170999526977539,9.751999855041504 C8.170999526977539,9.751999855041504 7.310999870300293,14.295000076293945 7.310999870300293,14.295000076293945 C7.235000133514404,14.704000473022461 6.877999782562256,15 6.461999893188477,15 C6.461999893188477,15 6.461999893188477,15 6.461999893188477,15z"></path></g></g></g></g></g></svg>