<svg xmlns="http://www.w3.org/2000/svg" xmlns:xlink="http://www.w3.org/1999/xlink" viewBox="0 0 512 512" width="512" height="512" style="width: 100%; height: 100%; transform: translate3d(0,0,0);" preserveAspectRatio="xMidYMid meet"><defs><clipPath id="__lottie_element_221"><rect width="512" height="512" x="0" y="0"></rect></clipPath><clipPath id="__lottie_element_223"><path d="M0,0 L24,0 L24,24 L0,24z"></path></clipPath><linearGradient id="__lottie_element_229" spreadMethod="pad" gradientUnits="userSpaceOnUse" x1="3.878999948501587" y1="3.878999948501587" x2="20.121000289916992" y2="20.121000289916992"><stop offset="0%" stop-color="rgb(255,255,255)" stop-opacity="0.6000000238418579"></stop><stop offset="100%" stop-color="rgb(255,255,255)" stop-opacity="0.30000001192092896"></stop></linearGradient><linearGradient id="__lottie_element_230" spreadMethod="pad" gradientUnits="userSpaceOnUse" x1="3.878999948501587" y1="3.878999948501587" x2="20.121000289916992" y2="20.121000289916992"><stop offset="0%" stop-color="rgb(255,255,255)" stop-opacity="0.6000000238418579"></stop><stop offset="49%" stop-color="rgb(255,255,255)" stop-opacity="0"></stop><stop offset="100%" stop-color="rgb(255,255,255)" stop-opacity="0.30000001192092896"></stop></linearGradient><linearGradient id="__lottie_element_231" spreadMethod="pad" gradientUnits="userSpaceOnUse" x1="15.586000442504883" y1="6.585999965667725" x2="18.413999557495117" y2="9.413999557495117"><stop offset="0%" stop-color="rgb(255,255,255)" stop-opacity="0.699999988079071"></stop><stop offset="52%" stop-color="rgb(255,255,255)" stop-opacity="0.44999998807907104"></stop><stop offset="100%" stop-color="rgb(255,255,255)" stop-opacity="0.550000011920929"></stop></linearGradient><linearGradient id="__lottie_element_232" spreadMethod="pad" gradientUnits="userSpaceOnUse" x1="6.291999816894531" y1="9.961000442504883" x2="16.37299919128418" y2="20.04199981689453"><stop offset="0%" stop-color="rgb(255,255,255)" stop-opacity="0.699999988079071"></stop><stop offset="52%" stop-color="rgb(255,255,255)" stop-opacity="0.44999998807907104"></stop><stop offset="100%" stop-color="rgb(255,255,255)" stop-opacity="0.550000011920929"></stop></linearGradient></defs><g clip-path="url(#__lottie_element_221)"><g clip-path="url(#__lottie_element_223)" style="display: block;" transform="matrix(21.33333396911621,0,0,21.33333396911621,0,0)" opacity="1"><g style="display: block;" transform="matrix(1,0,0,1,0,0)" opacity="1"><g opacity="1" transform="matrix(1,0,0,1,0,0)"><g opacity="1" transform="matrix(1,0,0,1,0,0)"><path fill="url(#__lottie_element_229)" fill-opacity="1" d=" M19,20 C19,20 5,20 5,20 C3.3429999351501465,20 2,18.656999588012695 2,17 C2,17 2,7 2,7 C2,5.3429999351501465 3.3429999351501465,4 5,4 C5,4 19,4 19,4 C20.656999588012695,4 22,5.3429999351501465 22,7 C22,7 22,17 22,17 C22,18.656999588012695 20.656999588012695,20 19,20 C19,20 19,20 19,20z"></path></g><g opacity="1" transform="matrix(1,0,0,1,0,0)"><path fill="url(#__lottie_element_230)" fill-opacity="1" d=" M19,4 C19,4 5,4 5,4 C3.3429999351501465,4 2,5.3429999351501465 2,7 C2,7 2,17 2,17 C2,18.656999588012695 3.3429999351501465,20 5,20 C5,20 19,20 19,20 C20.656999588012695,20 22,18.656999588012695 22,17 C22,17 22,7 22,7 C22,5.3429999351501465 20.656999588012695,4 19,4 C19,4 19,4 19,4 C19,4 19,4 19,4z M19,4.5 C20.378999710083008,4.5 21.5,5.620999813079834 21.5,7 C21.5,7 21.5,17 21.5,17 C21.5,18.378000259399414 20.378999710083008,19.5 19,19.5 C19,19.5 5,19.5 5,19.5 C3.621000051498413,19.5 2.5,18.378000259399414 2.5,17 C2.5,17 2.5,7 2.5,7 C2.5,5.620999813079834 3.621000051498413,4.5 5,4.5 C5,4.5 19,4.5 19,4.5"></path></g></g><g opacity="1" transform="matrix(1,0,0,1,0,0)"><path fill="url(#__lottie_element_231)" fill-opacity="1" d=" M17,6 C18.10379981994629,6 19,6.896200180053711 19,8 C19,9.103799819946289 18.10379981994629,10 17,10 C15.896200180053711,10 15,9.103799819946289 15,8 C15,6.896200180053711 15.896200180053711,6 17,6z"></path></g><g opacity="1" transform="matrix(1,0,0,1,0,0)"><path fill="url(#__lottie_element_232)" fill-opacity="1" d=" M4,16 C4,16.54800033569336 4.447999954223633,17 5,17 C5,17 19,17 19,17 C19.552000045776367,17 20,16.555999755859375 20,16 C20,14.63599967956543 18.312000274658203,13 17.5,13 C16.687999725341797,13 15.95199966430664,14 14,14 C11.557999610900879,14 10,9 8,9 C6,9 4,13.362000465393066 4,16 C4,16 4,16 4,16z"></path></g></g></g></g></svg>