<svg xmlns="http://www.w3.org/2000/svg" xmlns:xlink="http://www.w3.org/1999/xlink" viewBox="0 0 512 512" width="512" height="512" style="width: 100%; height: 100%; transform: translate3d(0,0,0);" preserveAspectRatio="xMidYMid meet"><defs><clipPath id="__lottie_element_74"><rect width="512" height="512" x="0" y="0"></rect></clipPath><clipPath id="__lottie_element_76"><path d="M0,0 L24,0 L24,24 L0,24z"></path></clipPath><linearGradient id="__lottie_element_82" spreadMethod="pad" gradientUnits="userSpaceOnUse" x1="4.928999900817871" y1="4.928999900817871" x2="19.070999145507812" y2="19.070999145507812"><stop offset="0%" stop-color="rgb(255,255,255)" stop-opacity="0.6000000238418579"></stop><stop offset="100%" stop-color="rgb(255,255,255)" stop-opacity="0.30000001192092896"></stop></linearGradient><linearGradient id="__lottie_element_83" spreadMethod="pad" gradientUnits="userSpaceOnUse" x1="4.928999900817871" y1="4.928999900817871" x2="19.070999145507812" y2="19.070999145507812"><stop offset="0%" stop-color="rgb(255,255,255)" stop-opacity="0.6000000238418579"></stop><stop offset="49%" stop-color="rgb(255,255,255)" stop-opacity="0"></stop><stop offset="100%" stop-color="rgb(255,255,255)" stop-opacity="0.30000001192092896"></stop></linearGradient><linearGradient id="__lottie_element_84" spreadMethod="pad" gradientUnits="userSpaceOnUse" x1="8.793000221252441" y1="8.793000221252441" x2="15.206999778747559" y2="15.206999778747559"><stop offset="0%" stop-color="rgb(255,255,255)" stop-opacity="0.699999988079071"></stop><stop offset="52%" stop-color="rgb(255,255,255)" stop-opacity="0.44999998807907104"></stop><stop offset="100%" stop-color="rgb(255,255,255)" stop-opacity="0.550000011920929"></stop></linearGradient></defs><g clip-path="url(#__lottie_element_74)"><g clip-path="url(#__lottie_element_76)" style="display: block;" transform="matrix(21.33333396911621,0,0,21.33333396911621,0,0)" opacity="1"><g style="display: block;" transform="matrix(1,0,0,1,0,0)" opacity="1"><g opacity="1" transform="matrix(1,0,0,1,0,0)"><g opacity="1" transform="matrix(1,0,0,1,0,0)"><path fill="url(#__lottie_element_82)" fill-opacity="1" d=" M12,2 C17.518999099731445,2 22,6.480999946594238 22,12 C22,17.518999099731445 17.518999099731445,22 12,22 C6.480999946594238,22 2,17.518999099731445 2,12 C2,6.480999946594238 6.480999946594238,2 12,2z"></path></g><g opacity="1" transform="matrix(1,0,0,1,0,0)"><path fill="url(#__lottie_element_83)" fill-opacity="1" d=" M12,2 C6.4770002365112305,2 2,6.4770002365112305 2,12 C2,17.523000717163086 6.4770002365112305,22 12,22 C17.523000717163086,22 22,17.523000717163086 22,12 C22,6.4770002365112305 17.523000717163086,2 12,2 C12,2 12,2 12,2 C12,2 12,2 12,2z M12,2.5 C17.238000869750977,2.5 21.5,6.76200008392334 21.5,12 C21.5,17.238000869750977 17.238000869750977,21.5 12,21.5 C6.76200008392334,21.5 2.5,17.238000869750977 2.5,12 C2.5,6.76200008392334 6.76200008392334,2.5 12,2.5"></path></g></g><g opacity="1" transform="matrix(1,0,0,1,0,0)"><path fill="url(#__lottie_element_84)" fill-opacity="1" d=" M17,11 C17,11 13,11 13,11 C13,11 13,7 13,7 C13,6.447999954223633 12.552000045776367,6 12,6 C11.447999954223633,6 11,6.447999954223633 11,7 C11,7 11,11 11,11 C11,11 7,11 7,11 C6.447999954223633,11 6,11.447999954223633 6,12 C6,12.552000045776367 6.447999954223633,13 7,13 C7,13 11,13 11,13 C11,13 11,17 11,17 C11,17.552000045776367 11.447999954223633,18 12,18 C12.552000045776367,18 13,17.552000045776367 13,17 C13,17 13,13 13,13 C13,13 17,13 17,13 C17.552000045776367,13 18,12.552000045776367 18,12 C18,11.447999954223633 17.552000045776367,11 17,11 C17,11 17,11 17,11z"></path></g></g></g></g></svg>