<svg xmlns="http://www.w3.org/2000/svg" xmlns:xlink="http://www.w3.org/1999/xlink" viewBox="0 0 512 512" width="512" height="512" style="width: 100%; height: 100%; transform: translate3d(0,0,0);" preserveAspectRatio="xMidYMid meet"><defs><clipPath id="__lottie_element_198"><rect width="512" height="512" x="0" y="0"></rect></clipPath><clipPath id="__lottie_element_200"><path d="M0,0 L24,0 L24,24 L0,24z"></path></clipPath><linearGradient id="__lottie_element_206" spreadMethod="pad" gradientUnits="userSpaceOnUse" x1="4.928999900817871" y1="4.928999900817871" x2="19.070999145507812" y2="19.070999145507812"><stop offset="0%" stop-color="rgb(255,255,255)" stop-opacity="0.6000000238418579"></stop><stop offset="100%" stop-color="rgb(255,255,255)" stop-opacity="0.30000001192092896"></stop></linearGradient><linearGradient id="__lottie_element_207" spreadMethod="pad" gradientUnits="userSpaceOnUse" x1="4.928999900817871" y1="4.928999900817871" x2="19.070999145507812" y2="19.070999145507812"><stop offset="0%" stop-color="rgb(255,255,255)" stop-opacity="0.6000000238418579"></stop><stop offset="49%" stop-color="rgb(255,255,255)" stop-opacity="0"></stop><stop offset="100%" stop-color="rgb(255,255,255)" stop-opacity="0.30000001192092896"></stop></linearGradient><linearGradient id="__lottie_element_208" spreadMethod="pad" gradientUnits="userSpaceOnUse" x1="7.790999889373779" y1="7.789999961853027" x2="16.208999633789062" y2="16.208999633789062"><stop offset="0%" stop-color="rgb(255,255,255)" stop-opacity="0.699999988079071"></stop><stop offset="52%" stop-color="rgb(255,255,255)" stop-opacity="0.44999998807907104"></stop><stop offset="100%" stop-color="rgb(255,255,255)" stop-opacity="0.550000011920929"></stop></linearGradient></defs><g clip-path="url(#__lottie_element_198)"><g clip-path="url(#__lottie_element_200)" style="display: block;" transform="matrix(21.33333396911621,0,0,21.33333396911621,0,0)" opacity="1"><g style="display: block;" transform="matrix(1,0,0,1,0,0)" opacity="1"><g opacity="1" transform="matrix(1,0,0,1,0,0)"><g opacity="1" transform="matrix(1,0,0,1,0,0)"><path fill="url(#__lottie_element_206)" fill-opacity="1" d=" M12,2 C17.518999099731445,2 22,6.480999946594238 22,12 C22,17.518999099731445 17.518999099731445,22 12,22 C6.480999946594238,22 2,17.518999099731445 2,12 C2,6.480999946594238 6.480999946594238,2 12,2z"></path></g><g opacity="1" transform="matrix(1,0,0,1,0,0)"><path fill="url(#__lottie_element_207)" fill-opacity="1" d=" M12,2 C6.4770002365112305,2 2,6.4770002365112305 2,12 C2,17.523000717163086 6.4770002365112305,22 12,22 C17.523000717163086,22 22,17.523000717163086 22,12 C22,6.4770002365112305 17.523000717163086,2 12,2 C12,2 12,2 12,2 C12,2 12,2 12,2z M12,2.5 C17.238000869750977,2.5 21.5,6.76200008392334 21.5,12 C21.5,17.238000869750977 17.238000869750977,21.5 12,21.5 C6.76200008392334,21.5 2.5,17.238000869750977 2.5,12 C2.5,6.76200008392334 6.76200008392334,2.5 12,2.5"></path></g></g><g opacity="1" transform="matrix(1,0,0,1,0,0)"><path fill="url(#__lottie_element_208)" fill-opacity="1" d=" M13.402999877929688,12 C13.402999877929688,12 16.21500015258789,9.187999725341797 16.21500015258789,9.187999725341797 C16.599000930786133,8.803999900817871 16.599000930786133,8.180000305175781 16.21500015258789,7.796000003814697 C16.21500015258789,7.796000003814697 16.20400047302246,7.784999847412109 16.20400047302246,7.784999847412109 C15.819999694824219,7.401000022888184 15.196000099182129,7.401000022888184 14.812000274658203,7.784999847412109 C14.812000274658203,7.784999847412109 12,10.597000122070312 12,10.597000122070312 C12,10.597000122070312 9.187999725341797,7.784999847412109 9.187999725341797,7.784999847412109 C8.803999900817871,7.401000022888184 8.180000305175781,7.401000022888184 7.796000003814697,7.784999847412109 C7.796000003814697,7.784999847412109 7.784999847412109,7.796000003814697 7.784999847412109,7.796000003814697 C7.401000022888184,8.180999755859375 7.401000022888184,8.803999900817871 7.784999847412109,9.187999725341797 C7.784999847412109,9.187999725341797 10.597000122070312,12 10.597000122070312,12 C10.597000122070312,12 7.784999847412109,14.812000274658203 7.784999847412109,14.812000274658203 C7.401000022888184,15.196000099182129 7.401000022888184,15.819999694824219 7.784999847412109,16.20400047302246 C7.784999847412109,16.20400047302246 7.796000003814697,16.21500015258789 7.796000003814697,16.21500015258789 C8.180000305175781,16.599000930786133 8.803999900817871,16.599000930786133 9.187999725341797,16.21500015258789 C9.187999725341797,16.21500015258789 12,13.402999877929688 12,13.402999877929688 C12,13.402999877929688 14.812000274658203,16.21500015258789 14.812000274658203,16.21500015258789 C15.196000099182129,16.599000930786133 15.819999694824219,16.599000930786133 16.20400047302246,16.21500015258789 C16.20400047302246,16.21500015258789 16.21500015258789,16.20400047302246 16.21500015258789,16.20400047302246 C16.599000930786133,15.819999694824219 16.599000930786133,15.196000099182129 16.21500015258789,14.812000274658203 C16.21500015258789,14.812000274658203 13.402999877929688,12 13.402999877929688,12 C13.402999877929688,12 13.402999877929688,12 13.402999877929688,12z"></path></g></g></g></g></svg>