<svg xmlns="http://www.w3.org/2000/svg" xmlns:xlink="http://www.w3.org/1999/xlink" viewBox="0 0 512 512" width="512" height="512" style="width: 100%; height: 100%; transform: translate3d(0,0,0);" preserveAspectRatio="xMidYMid meet"><defs><clipPath id="__lottie_element_234"><rect width="512" height="512" x="0" y="0"></rect></clipPath><clipPath id="__lottie_element_236"><path d="M0,0 L24,0 L24,24 L0,24z"></path></clipPath><linearGradient id="__lottie_element_242" spreadMethod="pad" gradientUnits="userSpaceOnUse" x1="3.2070000171661377" y1="4.9710001945495605" x2="19.02899932861328" y2="20.792999267578125"><stop offset="0%" stop-color="rgb(255,255,255)" stop-opacity="0.6000000238418579"></stop><stop offset="100%" stop-color="rgb(255,255,255)" stop-opacity="0.30000001192092896"></stop></linearGradient><linearGradient id="__lottie_element_243" spreadMethod="pad" gradientUnits="userSpaceOnUse" x1="3.2070000171661377" y1="4.9710001945495605" x2="19.02899932861328" y2="20.792999267578125"><stop offset="0%" stop-color="rgb(255,255,255)" stop-opacity="0.6000000238418579"></stop><stop offset="49%" stop-color="rgb(255,255,255)" stop-opacity="0"></stop><stop offset="100%" stop-color="rgb(255,255,255)" stop-opacity="0.30000001192092896"></stop></linearGradient></defs><g clip-path="url(#__lottie_element_234)"><g clip-path="url(#__lottie_element_236)" style="display: block;" transform="matrix(21.33333396911621,0,0,21.33333396911621,0,0)" opacity="1"><g style="display: block;" transform="matrix(1,0,0,1,0,0)" opacity="1"><g opacity="1" transform="matrix(1,0,0,1,0,0)"><g opacity="1" transform="matrix(1,0,0,1,0,0)"><path fill="url(#__lottie_element_242)" fill-opacity="1" d=" M19.908000946044922,14.640000343322754 C18.452999114990234,13.1850004196167 16.0939998626709,13.184000015258789 14.63700008392334,14.63700008392334 C14.63700008392334,14.63700008392334 14.63700008392334,14.63700008392334 14.63700008392334,14.63700008392334 C14.63599967956543,14.637999534606934 14.633999824523926,14.637999534606934 14.633000373840332,14.638999938964844 C14.633000373840332,14.638999938964844 13.704000473022461,15.567999839782715 13.704000473022461,15.567999839782715 C13.704000473022461,15.567999839782715 8.430000305175781,10.293999671936035 8.430000305175781,10.293999671936035 C8.430000305175781,10.293999671936035 9.359999656677246,9.366000175476074 9.359999656677246,9.366000175476074 C9.361000061035156,9.364999771118164 9.361000061035156,9.36299991607666 9.362000465393066,9.362000465393066 C9.362000465393066,9.362000465393066 9.362000465393066,9.362000465393066 9.362000465393066,9.362000465393066 C10.8149995803833,7.90500020980835 10.8149995803833,5.546999931335449 9.359000205993652,4.091000080108643 C7.90500020980835,2.63700008392334 5.546000003814697,2.635999917984009 4.089000225067139,4.089000225067139 C4.089000225067139,4.089000225067139 4.089000225067139,4.089000225067139 4.089000225067139,4.089000225067139 C4.089000225067139,4.091000080108643 4.086999893188477,4.091000080108643 4.085999965667725,4.0920000076293945 C3.1549999713897705,5.0229997634887695 2.8259999752044678,6.322000026702881 3.0850000381469727,7.519999980926514 C3.306999921798706,9.17300033569336 4.176000118255615,12.972000122070312 7.6020002365112305,16.398000717163086 C11.027999877929688,19.823999404907227 14.826000213623047,20.69300079345703 16.479999542236328,20.915000915527344 C17.67799949645996,21.173999786376953 18.976999282836914,20.844999313354492 19.908000946044922,19.913999557495117 C19.909000396728516,19.913000106811523 19.909000396728516,19.910999298095703 19.90999984741211,19.90999984741211 C19.90999984741211,19.90999984741211 19.90999984741211,19.90999984741211 19.90999984741211,19.90999984741211 C21.36400032043457,18.45400047302246 21.363000869750977,16.094999313354492 19.908000946044922,14.640000343322754 C19.908000946044922,14.640000343322754 19.908000946044922,14.640000343322754 19.908000946044922,14.640000343322754z"></path></g><g opacity="1" transform="matrix(1,0,0,1,0,0)"><path fill="url(#__lottie_element_243)" fill-opacity="1" d=" M6.723999977111816,3 C5.769999980926514,3 4.816999912261963,3.36299991607666 4.089000225067139,4.089000225067139 C4.089000225067139,4.089000225067139 4.089000225067139,4.089000225067139 4.089000225067139,4.089000225067139 C4.089000225067139,4.091000080108643 4.086999893188477,4.091000080108643 4.085999965667725,4.0920000076293945 C3.1549999713897705,5.0229997634887695 2.8259999752044678,6.322000026702881 3.0850000381469727,7.519999980926514 C3.306999921798706,9.17300033569336 4.176000118255615,12.972000122070312 7.6020002365112305,16.398000717163086 C11.027999877929688,19.823999404907227 14.826000213623047,20.69300079345703 16.479999542236328,20.915000915527344 C16.743000030517578,20.97100067138672 17.01099967956543,21 17.27899932861328,21 C18.231000900268555,21 19.180999755859375,20.639999389648438 19.906999588012695,19.913999557495117 C19.908000946044922,19.913000106811523 19.908000946044922,19.910999298095703 19.909000396728516,19.90999984741211 C19.909000396728516,19.90999984741211 19.909000396728516,19.90999984741211 19.909000396728516,19.90999984741211 C21.36199951171875,18.45400047302246 21.36199951171875,16.094999313354492 19.9060001373291,14.638999938964844 C19.17799949645996,13.91100025177002 18.224000930786133,13.54699993133545 17.268999099731445,13.54699993133545 C16.31599998474121,13.54699993133545 15.36299991607666,13.90999984741211 14.635000228881836,14.63599967956543 C14.635000228881836,14.63599967956543 14.635000228881836,14.63599967956543 14.635000228881836,14.63599967956543 C14.633999824523926,14.63700008392334 14.631999969482422,14.63700008392334 14.630999565124512,14.637999534606934 C14.630999565124512,14.637999534606934 13.70199966430664,15.567000389099121 13.70199966430664,15.567000389099121 C13.70199966430664,15.567000389099121 8.428000450134277,10.293000221252441 8.428000450134277,10.293000221252441 C8.428000450134277,10.293000221252441 9.359999656677246,9.366000175476074 9.359999656677246,9.366000175476074 C9.361000061035156,9.364999771118164 9.361000061035156,9.36299991607666 9.362000465393066,9.362000465393066 C9.362000465393066,9.362000465393066 9.362000465393066,9.362000465393066 9.362000465393066,9.362000465393066 C10.8149995803833,7.90500020980835 10.8149995803833,5.546999931335449 9.359000205993652,4.091000080108643 C8.631999969482422,3.364000082015991 7.677999973297119,3 6.723999977111816,3 C6.723999977111816,3 6.723999977111816,3 6.723999977111816,3 C6.723999977111816,3 6.723999977111816,3 6.723999977111816,3z M6.7230000495910645,3.5 C7.585000038146973,3.5 8.395999908447266,3.8359999656677246 9.005999565124512,4.446000099182129 C10.263999938964844,5.703999996185303 10.265000343322754,7.750999927520752 8.99899959564209,9.019000053405762 C8.99899959564209,9.019000053405762 8.982999801635742,9.03600025177002 8.982999801635742,9.03600025177002 C8.982999801635742,9.03600025177002 8.07699966430664,9.942000389099121 8.07699966430664,9.942000389099121 C8.07699966430664,9.942000389099121 7.7230000495910645,10.295999526977539 7.7230000495910645,10.295999526977539 C7.7230000495910645,10.295999526977539 8.07699966430664,10.649999618530273 8.07699966430664,10.649999618530273 C8.07699966430664,10.649999618530273 13.35099983215332,15.923999786376953 13.35099983215332,15.923999786376953 C13.35099983215332,15.923999786376953 13.704999923706055,16.277999877929688 13.704999923706055,16.277999877929688 C13.704999923706055,16.277999877929688 14.059000015258789,15.923999786376953 14.059000015258789,15.923999786376953 C14.059000015258789,15.923999786376953 14.942999839782715,15.039999961853027 14.942999839782715,15.039999961853027 C14.942999839782715,15.039999961853027 15.024999618530273,14.991999626159668 15.024999618530273,14.991999626159668 C15.024999618530273,14.991999626159668 15.053000450134277,14.932999610900879 15.053000450134277,14.932999610900879 C15.654999732971191,14.36299991607666 16.440000534057617,14.048999786376953 17.273000717163086,14.048999786376953 C18.135000228881836,14.048999786376953 18.945999145507812,14.385000228881836 19.555999755859375,14.994999885559082 C20.81399917602539,16.253000259399414 20.81399917602539,18.299999237060547 19.558000564575195,19.558000564575195 C19.558000564575195,19.558000564575195 19.51099967956543,19.604999542236328 19.51099967956543,19.604999542236328 C18.90999984741211,20.183000564575195 18.121000289916992,20.500999450683594 17.280000686645508,20.500999450683594 C17.047000885009766,20.500999450683594 16.81399917602539,20.47599983215332 16.547000885009766,20.420000076293945 C15.083000183105469,20.224000930786133 11.3149995803833,19.40399932861328 7.955999851226807,16.045000076293945 C4.5970001220703125,12.685999870300293 3.7780001163482666,8.918000221252441 3.575000047683716,7.414999961853027 C3.3450000286102295,6.353000164031982 3.6519999504089355,5.263999938964844 4.3979997634887695,4.489999771118164 C4.3979997634887695,4.489999771118164 4.479000091552734,4.441999912261963 4.479000091552734,4.441999912261963 C4.479000091552734,4.441999912261963 4.50600004196167,4.382999897003174 4.50600004196167,4.382999897003174 C5.10699987411499,3.812999963760376 5.890999794006348,3.5 6.7230000495910645,3.5"></path></g></g></g></g></g></svg>