<svg xmlns="http://www.w3.org/2000/svg" xmlns:xlink="http://www.w3.org/1999/xlink" viewBox="0 0 512 512" width="512" height="512" style="width: 100%; height: 100%; transform: translate3d(0,0,0);" preserveAspectRatio="xMidYMid meet"><defs><clipPath id="__lottie_element_227"><rect width="512" height="512" x="0" y="0"></rect></clipPath><clipPath id="__lottie_element_229"><path d="M0,0 L24,0 L24,24 L0,24z"></path></clipPath><linearGradient id="__lottie_element_235" spreadMethod="pad" gradientUnits="userSpaceOnUse" x1="4.579999923706055" y1="6.520999908447266" x2="19.3700008392334" y2="21.31100082397461"><stop offset="0%" stop-color="rgb(255,255,255)" stop-opacity="0.6000000238418579"></stop><stop offset="100%" stop-color="rgb(255,255,255)" stop-opacity="0.30000001192092896"></stop></linearGradient><linearGradient id="__lottie_element_236" spreadMethod="pad" gradientUnits="userSpaceOnUse" x1="4.579999923706055" y1="6.520999908447266" x2="19.3700008392334" y2="21.31100082397461"><stop offset="0%" stop-color="rgb(255,255,255)" stop-opacity="0.6000000238418579"></stop><stop offset="49%" stop-color="rgb(255,255,255)" stop-opacity="0"></stop><stop offset="100%" stop-color="rgb(255,255,255)" stop-opacity="0.30000001192092896"></stop></linearGradient><linearGradient id="__lottie_element_237" spreadMethod="pad" gradientUnits="userSpaceOnUse" x1="10.189000129699707" y1="18.81100082397461" x2="13.810999870300293" y2="22.43199920654297"><stop offset="0%" stop-color="rgb(255,255,255)" stop-opacity="0.699999988079071"></stop><stop offset="52%" stop-color="rgb(255,255,255)" stop-opacity="0.44999998807907104"></stop><stop offset="100%" stop-color="rgb(255,255,255)" stop-opacity="0.550000011920929"></stop></linearGradient></defs><g clip-path="url(#__lottie_element_227)"><g clip-path="url(#__lottie_element_229)" style="display: block;" transform="matrix(21.33333396911621,0,0,21.33333396911621,0,0)" opacity="1"><g style="display: block;" transform="matrix(1,0,0,1,0,0)" opacity="1"><g opacity="1" transform="matrix(1,0,0,1,0,0)"><g opacity="1" transform="matrix(1,0,0,1,0,0)"><path fill="url(#__lottie_element_235)" fill-opacity="1" d=" M21.549999237060547,16.399999618530273 C21.549999237060547,16.399999618530273 20.399999618530273,14.866999626159668 20.399999618530273,14.866999626159668 C19.490999221801758,13.654999732971191 19,12.182000160217285 19,10.666999816894531 C19,10.666999816894531 19,9.293999671936035 19,9.293999671936035 C19,5.460999965667725 16.047000885009766,2.11899995803833 12.21500015258789,2.003999948501587 C8.25100040435791,1.8839999437332153 5,5.061999797821045 5,9 C5,9 5,10.666999816894531 5,10.666999816894531 C5,12.182000160217285 4.508999824523926,13.654999732971191 3.5999999046325684,14.866999626159668 C3.5999999046325684,14.866999626159668 2.450000047683716,16.399999618530273 2.450000047683716,16.399999618530273 C2.1579999923706055,16.788999557495117 2,17.26300048828125 2,17.75 C2,18.993000030517578 3.006999969482422,20 4.25,20 C4.25,20 9,20 9,20 C9,21.656999588012695 10.343000411987305,23 12,23 C13.656999588012695,23 15,21.656999588012695 15,20 C15,20 19.75,20 19.75,20 C20.993000030517578,20 22,18.993000030517578 22,17.75 C22,17.26300048828125 21.841999053955078,16.788999557495117 21.549999237060547,16.399999618530273 C21.549999237060547,16.399999618530273 21.549999237060547,16.399999618530273 21.549999237060547,16.399999618530273z"></path></g><g opacity="1" transform="matrix(1,0,0,1,0,0)"><path fill="url(#__lottie_element_236)" fill-opacity="1" d=" M12,2 C8.133999824523926,2 5,5.133999824523926 5,9 C5,9 5,10.666999816894531 5,10.666999816894531 C5,12.182000160217285 4.508999824523926,13.654999732971191 3.5999999046325684,14.866999626159668 C3.5999999046325684,14.866999626159668 2.450000047683716,16.399999618530273 2.450000047683716,16.399999618530273 C2.1579999923706055,16.788999557495117 2,17.26300048828125 2,17.75 C2,18.993000030517578 3.006999969482422,20 4.25,20 C4.25,20 9,20 9,20 C9,21.656999588012695 10.343000411987305,23 12,23 C13.656999588012695,23 15,21.656999588012695 15,20 C15,20 19.75,20 19.75,20 C20.993000030517578,20 22,18.993000030517578 22,17.75 C22,17.26300048828125 21.841999053955078,16.788999557495117 21.549999237060547,16.399999618530273 C21.549999237060547,16.399999618530273 20.399999618530273,14.866999626159668 20.399999618530273,14.866999626159668 C19.490999221801758,13.654999732971191 19,12.182000160217285 19,10.666999816894531 C19,10.666999816894531 19,9.293999671936035 19,9.293999671936035 C19,5.460999965667725 16.047000885009766,2.11899995803833 12.21500015258789,2.003999948501587 C12.144000053405762,2.000999927520752 12.071000099182129,2 12,2 C12,2 12,2 12,2 C12,2 12,2 12,2z M12,2.5 C12.065999984741211,2.5 12.133999824523926,2.500999927520752 12.199999809265137,2.503000020980835 C15.673999786376953,2.6070001125335693 18.5,5.6529998779296875 18.5,9.293000221252441 C18.5,9.293000221252441 18.5,10.666000366210938 18.5,10.666000366210938 C18.5,12.277999877929688 19.033000946044922,13.87600040435791 20,15.166000366210938 C20,15.166000366210938 21.149999618530273,16.698999404907227 21.149999618530273,16.698999404907227 C21.375999450683594,17 21.5,17.37299919128418 21.5,17.749000549316406 C21.5,18.714000701904297 20.71500015258789,19.499000549316406 19.75,19.499000549316406 C19.75,19.499000549316406 15,19.499000549316406 15,19.499000549316406 C15,19.499000549316406 14.5,19.499000549316406 14.5,19.499000549316406 C14.5,19.499000549316406 14.5,20 14.5,20 C14.5,21.378999710083008 13.378000259399414,22.5 12,22.5 C10.621999740600586,22.5 9.5,21.378999710083008 9.5,20 C9.5,20 9.5,19.5 9.5,19.5 C9.5,19.5 9,19.5 9,19.5 C9,19.5 4.25,19.5 4.25,19.5 C3.2850000858306885,19.5 2.5,18.71500015258789 2.5,17.75 C2.5,17.374000549316406 2.624000072479248,17.000999450683594 2.8499999046325684,16.700000762939453 C2.8499999046325684,16.700000762939453 4,15.166999816894531 4,15.166999816894531 C4.9670000076293945,13.876999855041504 5.5,12.279000282287598 5.5,10.666999816894531 C5.5,10.666999816894531 5.5,9 5.5,9 C5.5,5.415999889373779 8.416000366210938,2.5 12,2.5"></path></g></g><g opacity="1" transform="matrix(1,0,0,1,0,0)"><path fill="url(#__lottie_element_237)" fill-opacity="1" d=" M9,20 C9,21.656999588012695 10.343000411987305,23 12,23 C13.656999588012695,23 15,21.656999588012695 15,20 C15,20 9,20 9,20 C9,20 9,20 9,20z"></path></g></g></g></g></svg>