<svg xmlns="http://www.w3.org/2000/svg" xmlns:xlink="http://www.w3.org/1999/xlink" viewBox="0 0 512 512" width="512" height="512" style="width: 100%; height: 100%; transform: translate3d(0,0,0);" preserveAspectRatio="xMidYMid meet"><defs><clipPath id="__lottie_element_13"><rect width="512" height="512" x="0" y="0"></rect></clipPath><clipPath id="__lottie_element_15"><path d="M0,0 L24,0 L24,24 L0,24z"></path></clipPath><linearGradient id="__lottie_element_21" spreadMethod="pad" gradientUnits="userSpaceOnUse" x1="5.98199987411499" y1="11.482000350952148" x2="18.01799964904785" y2="23.51799964904785"><stop offset="0%" stop-color="rgb(255,255,255)" stop-opacity="0.6000000238418579"></stop><stop offset="100%" stop-color="rgb(255,255,255)" stop-opacity="0.30000001192092896"></stop></linearGradient><linearGradient id="__lottie_element_22" spreadMethod="pad" gradientUnits="userSpaceOnUse" x1="5.98199987411499" y1="11.482000350952148" x2="18.01799964904785" y2="23.51799964904785"><stop offset="0%" stop-color="rgb(255,255,255)" stop-opacity="0.6000000238418579"></stop><stop offset="49%" stop-color="rgb(255,255,255)" stop-opacity="0"></stop><stop offset="100%" stop-color="rgb(255,255,255)" stop-opacity="0.30000001192092896"></stop></linearGradient><linearGradient id="__lottie_element_23" spreadMethod="pad" gradientUnits="userSpaceOnUse" x1="5.98199987411499" y1="11.482000350952148" x2="18.01799964904785" y2="23.51799964904785"><stop offset="0%" stop-color="rgb(255,255,255)" stop-opacity="0.4000000059604645"></stop><stop offset="100%" stop-color="rgb(255,255,255)" stop-opacity="0.20000000298023224"></stop></linearGradient><linearGradient id="__lottie_element_24" spreadMethod="pad" gradientUnits="userSpaceOnUse" x1="9.17199993133545" y1="4.171999931335449" x2="14.82800006866455" y2="9.82800006866455"><stop offset="0%" stop-color="rgb(255,255,255)" stop-opacity="0.6000000238418579"></stop><stop offset="100%" stop-color="rgb(255,255,255)" stop-opacity="0.30000001192092896"></stop></linearGradient><linearGradient id="__lottie_element_25" spreadMethod="pad" gradientUnits="userSpaceOnUse" x1="9.17199993133545" y1="4.171999931335449" x2="14.82800006866455" y2="9.82800006866455"><stop offset="0%" stop-color="rgb(255,255,255)" stop-opacity="0.6000000238418579"></stop><stop offset="49%" stop-color="rgb(255,255,255)" stop-opacity="0"></stop><stop offset="100%" stop-color="rgb(255,255,255)" stop-opacity="0.30000001192092896"></stop></linearGradient><linearGradient id="__lottie_element_26" spreadMethod="pad" gradientUnits="userSpaceOnUse" x1="17.878999710083008" y1="6.879000186920166" x2="22.121000289916992" y2="11.121000289916992"><stop offset="0%" stop-color="rgb(255,255,255)" stop-opacity="0.6000000238418579"></stop><stop offset="100%" stop-color="rgb(255,255,255)" stop-opacity="0.30000001192092896"></stop></linearGradient><linearGradient id="__lottie_element_27" spreadMethod="pad" gradientUnits="userSpaceOnUse" x1="17.878999710083008" y1="6.879000186920166" x2="22.121000289916992" y2="11.121000289916992"><stop offset="0%" stop-color="rgb(255,255,255)" stop-opacity="0.6000000238418579"></stop><stop offset="49%" stop-color="rgb(255,255,255)" stop-opacity="0"></stop><stop offset="100%" stop-color="rgb(255,255,255)" stop-opacity="0.30000001192092896"></stop></linearGradient><linearGradient id="__lottie_element_28" spreadMethod="pad" gradientUnits="userSpaceOnUse" x1="1.878999948501587" y1="6.879000186920166" x2="6.120999813079834" y2="11.121000289916992"><stop offset="0%" stop-color="rgb(255,255,255)" stop-opacity="0.6000000238418579"></stop><stop offset="100%" stop-color="rgb(255,255,255)" stop-opacity="0.30000001192092896"></stop></linearGradient><linearGradient id="__lottie_element_29" spreadMethod="pad" gradientUnits="userSpaceOnUse" x1="1.878999948501587" y1="6.879000186920166" x2="6.120999813079834" y2="11.121000289916992"><stop offset="0%" stop-color="rgb(255,255,255)" stop-opacity="0.6000000238418579"></stop><stop offset="49%" stop-color="rgb(255,255,255)" stop-opacity="0"></stop><stop offset="100%" stop-color="rgb(255,255,255)" stop-opacity="0.30000001192092896"></stop></linearGradient></defs><g clip-path="url(#__lottie_element_13)"><g clip-path="url(#__lottie_element_15)" style="display: block;" transform="matrix(21.33333396911621,0,0,21.33333396911621,0,0)" opacity="1"><g style="display: block;" transform="matrix(1,0,0,1,0,0)" opacity="1"><g opacity="1" transform="matrix(1,0,0,1,0,0)"><g opacity="1" transform="matrix(1,0,0,1,0,0)"><path fill="url(#__lottie_element_21)" fill-opacity="1" d=" M20.5,15 C20.5,15 18.649999618530273,15 18.649999618530273,15 C18.086999893188477,13.821000099182129 16.893999099731445,13 15.5,13 C15.5,13 8.5,13 8.5,13 C7.105999946594238,13 5.913000106811523,13.821000099182129 5.349999904632568,15 C5.349999904632568,15 3.5,15 3.5,15 C2.11899995803833,15 1,16.118999481201172 1,17.5 C1,18.881000518798828 2.11899995803833,20 3.5,20 C3.5,20 20.5,20 20.5,20 C21.881000518798828,20 23,18.881000518798828 23,17.5 C23,16.118999481201172 21.881000518798828,15 20.5,15 C20.5,15 20.5,15 20.5,15z"></path></g><g opacity="1" transform="matrix(1,0,0,1,0,0)"><path fill="url(#__lottie_element_22)" fill-opacity="1" d=" M15.5,13 C15.5,13 8.5,13 8.5,13 C7.105999946594238,13 5.913000106811523,13.821000099182129 5.349999904632568,15 C5.349999904632568,15 3.5,15 3.5,15 C2.11899995803833,15 1,16.118999481201172 1,17.5 C1,18.881000518798828 2.11899995803833,20 3.5,20 C3.5,20 20.5,20 20.5,20 C21.881000518798828,20 23,18.881000518798828 23,17.5 C23,16.118999481201172 21.881000518798828,15 20.5,15 C20.5,15 18.649999618530273,15 18.649999618530273,15 C18.086999893188477,13.821000099182129 16.893999099731445,13 15.5,13 C15.5,13 15.5,13 15.5,13 C15.5,13 15.5,13 15.5,13z M15.5,13.5 C16.65999984741211,13.5 17.694000244140625,14.156999588012695 18.198999404907227,15.21500015258789 C18.198999404907227,15.21500015258789 18.334999084472656,15.5 18.334999084472656,15.5 C18.334999084472656,15.5 18.649999618530273,15.5 18.649999618530273,15.5 C18.649999618530273,15.5 20.5,15.5 20.5,15.5 C21.60300064086914,15.5 22.5,16.39699935913086 22.5,17.5 C22.5,18.60300064086914 21.60300064086914,19.5 20.5,19.5 C20.5,19.5 3.5,19.5 3.5,19.5 C2.3970000743865967,19.5 1.5,18.60300064086914 1.5,17.5 C1.5,16.39699935913086 2.3970000743865967,15.5 3.5,15.5 C3.5,15.5 5.349999904632568,15.5 5.349999904632568,15.5 C5.349999904632568,15.5 5.664999961853027,15.5 5.664999961853027,15.5 C5.664999961853027,15.5 5.801000118255615,15.21500015258789 5.801000118255615,15.21500015258789 C6.306000232696533,14.156999588012695 7.340000152587891,13.5 8.5,13.5 C8.5,13.5 15.5,13.5 15.5,13.5"></path></g></g><g opacity="1" transform="matrix(1,0,0,1,0,0)"><path fill="url(#__lottie_element_23)" fill-opacity="1" d=" M20.5,15 C20.5,15 18.649999618530273,15 18.649999618530273,15 C18.086999893188477,13.821000099182129 16.893999099731445,13 15.5,13 C15.5,13 8.5,13 8.5,13 C7.105999946594238,13 5.913000106811523,13.821000099182129 5.349999904632568,15 C5.349999904632568,15 3.5,15 3.5,15 C2.11899995803833,15 1,16.118999481201172 1,17.5 C1,18.881000518798828 2.11899995803833,20 3.5,20 C3.5,20 20.5,20 20.5,20 C21.881000518798828,20 23,18.881000518798828 23,17.5 C23,16.118999481201172 21.881000518798828,15 20.5,15 C20.5,15 20.5,15 20.5,15z"></path></g><g opacity="1" transform="matrix(1,0,0,1,0,0)"><g opacity="1" transform="matrix(1,0,0,1,0,0)"><path fill="url(#__lottie_element_24)" fill-opacity="1" d=" M12,3 C14.207599639892578,3 16,4.792399883270264 16,7 C16,9.207599639892578 14.207599639892578,11 12,11 C9.792400360107422,11 8,9.207599639892578 8,7 C8,4.792399883270264 9.792400360107422,3 12,3z"></path></g><g opacity="1" transform="matrix(1,0,0,1,0,0)"><path fill="url(#__lottie_element_25)" fill-opacity="1" d=" M12,3 C9.791000366210938,3 8,4.790999889373779 8,7 C8,9.208999633789062 9.791000366210938,11 12,11 C14.208999633789062,11 16,9.208999633789062 16,7 C16,4.790999889373779 14.208999633789062,3 12,3 C12,3 12,3 12,3 C12,3 12,3 12,3z M12,3.5 C13.930000305175781,3.5 15.5,5.070000171661377 15.5,7 C15.5,8.930000305175781 13.930000305175781,10.5 12,10.5 C10.069999694824219,10.5 8.5,8.930000305175781 8.5,7 C8.5,5.070000171661377 10.069999694824219,3.5 12,3.5"></path></g></g><g opacity="1" transform="matrix(1,0,0,1,0,0)"><g opacity="1" transform="matrix(1,0,0,1,0,0)"><path fill="url(#__lottie_element_26)" fill-opacity="1" d=" M20,6 C21.65570068359375,6 23,7.344299793243408 23,9 C23,10.655699729919434 21.65570068359375,12 20,12 C18.34429931640625,12 17,10.655699729919434 17,9 C17,7.344299793243408 18.34429931640625,6 20,6z"></path></g><g opacity="1" transform="matrix(1,0,0,1,0,0)"><path fill="url(#__lottie_element_27)" fill-opacity="1" d=" M20,6 C18.343000411987305,6 17,7.3429999351501465 17,9 C17,10.656999588012695 18.343000411987305,12 20,12 C21.656999588012695,12 23,10.656999588012695 23,9 C23,7.3429999351501465 21.656999588012695,6 20,6 C20,6 20,6 20,6 C20,6 20,6 20,6z M20,6.5 C21.378999710083008,6.5 22.5,7.620999813079834 22.5,9 C22.5,10.378999710083008 21.378999710083008,11.5 20,11.5 C18.621000289916992,11.5 17.5,10.378999710083008 17.5,9 C17.5,7.620999813079834 18.621000289916992,6.5 20,6.5"></path></g></g><g opacity="1" transform="matrix(1,0,0,1,0,0)"><g opacity="1" transform="matrix(1,0,0,1,0,0)"><path fill="url(#__lottie_element_28)" fill-opacity="1" d=" M4,6 C5.655700206756592,6 7,7.344299793243408 7,9 C7,10.655699729919434 5.655700206756592,12 4,12 C2.3443000316619873,12 1,10.655699729919434 1,9 C1,7.344299793243408 2.3443000316619873,6 4,6z"></path></g><g opacity="1" transform="matrix(1,0,0,1,0,0)"><path fill="url(#__lottie_element_29)" fill-opacity="1" d=" M4,6 C2.3429999351501465,6 1,7.3429999351501465 1,9 C1,10.656999588012695 2.3429999351501465,12 4,12 C5.6570000648498535,12 7,10.656999588012695 7,9 C7,7.3429999351501465 5.6570000648498535,6 4,6 C4,6 4,6 4,6 C4,6 4,6 4,6z M4,6.5 C5.379000186920166,6.5 6.5,7.620999813079834 6.5,9 C6.5,10.378999710083008 5.379000186920166,11.5 4,11.5 C2.621000051498413,11.5 1.5,10.378999710083008 1.5,9 C1.5,7.620999813079834 2.621000051498413,6.5 4,6.5"></path></g></g></g></g></g></svg>