<svg xmlns="http://www.w3.org/2000/svg" xmlns:xlink="http://www.w3.org/1999/xlink" viewBox="0 0 512 512" width="512" height="512" style="width: 100%; height: 100%; transform: translate3d(0,0,0);" preserveAspectRatio="xMidYMid meet"><defs><clipPath id="__lottie_element_2"><rect width="512" height="512" x="0" y="0"></rect></clipPath><clipPath id="__lottie_element_4"><path d="M0,0 L24,0 L24,24 L0,24z"></path></clipPath><linearGradient id="__lottie_element_10" spreadMethod="pad" gradientUnits="userSpaceOnUse" x1="4.928999900817871" y1="4.928999900817871" x2="19.070999145507812" y2="19.070999145507812"><stop offset="0%" stop-color="rgb(255,255,255)" stop-opacity="0.6000000238418579"></stop><stop offset="100%" stop-color="rgb(255,255,255)" stop-opacity="0.30000001192092896"></stop></linearGradient><linearGradient id="__lottie_element_11" spreadMethod="pad" gradientUnits="userSpaceOnUse" x1="4.928999900817871" y1="4.928999900817871" x2="19.070999145507812" y2="19.070999145507812"><stop offset="0%" stop-color="rgb(255,255,255)" stop-opacity="0.6000000238418579"></stop><stop offset="49%" stop-color="rgb(255,255,255)" stop-opacity="0"></stop><stop offset="100%" stop-color="rgb(255,255,255)" stop-opacity="0.30000001192092896"></stop></linearGradient><linearGradient id="__lottie_element_12" spreadMethod="pad" gradientUnits="userSpaceOnUse" x1="9.793000221252441" y1="8.793000221252441" x2="14.206999778747559" y2="13.206999778747559"><stop offset="0%" stop-color="rgb(255,255,255)" stop-opacity="0.699999988079071"></stop><stop offset="52%" stop-color="rgb(255,255,255)" stop-opacity="0.44999998807907104"></stop><stop offset="100%" stop-color="rgb(255,255,255)" stop-opacity="0.550000011920929"></stop></linearGradient></defs><g clip-path="url(#__lottie_element_2)"><g clip-path="url(#__lottie_element_4)" style="display: block;" transform="matrix(21.33333396911621,0,0,21.33333396911621,0,0)" opacity="1"><g style="display: block;" transform="matrix(1,0,0,1,0,0)" opacity="1"><g opacity="1" transform="matrix(1,0,0,1,0,0)"><g opacity="1" transform="matrix(1,0,0,1,0,0)"><path fill="url(#__lottie_element_10)" fill-opacity="1" d=" M12,2 C17.518999099731445,2 22,6.480999946594238 22,12 C22,17.518999099731445 17.518999099731445,22 12,22 C6.480999946594238,22 2,17.518999099731445 2,12 C2,6.480999946594238 6.480999946594238,2 12,2z"></path></g><g opacity="1" transform="matrix(1,0,0,1,0,0)"><path fill="url(#__lottie_element_11)" fill-opacity="1" d=" M12,2 C6.4770002365112305,2 2,6.4770002365112305 2,12 C2,17.523000717163086 6.4770002365112305,22 12,22 C17.523000717163086,22 22,17.523000717163086 22,12 C22,6.4770002365112305 17.523000717163086,2 12,2 C12,2 12,2 12,2 C12,2 12,2 12,2z M12,2.5 C17.238000869750977,2.5 21.5,6.76200008392334 21.5,12 C21.5,17.238000869750977 17.238000869750977,21.5 12,21.5 C6.76200008392334,21.5 2.5,17.238000869750977 2.5,12 C2.5,6.76200008392334 6.76200008392334,2.5 12,2.5"></path></g></g><g opacity="1" transform="matrix(1,0,0,1,0,0)"><path fill="url(#__lottie_element_12)" fill-opacity="1" d=" M11,16 C10.744000434875488,16 10.48799991607666,15.902000427246094 10.293000221252441,15.706999778747559 C10.293000221252441,15.706999778747559 7.293000221252441,12.706999778747559 7.293000221252441,12.706999778747559 C6.9019999504089355,12.315999984741211 6.9019999504089355,11.684000015258789 7.293000221252441,11.293000221252441 C7.684000015258789,10.902000427246094 8.315999984741211,10.902000427246094 8.706999778747559,11.293000221252441 C8.706999778747559,11.293000221252441 11,13.586000442504883 11,13.586000442504883 C11,13.586000442504883 15.293000221252441,9.293000221252441 15.293000221252441,9.293000221252441 C15.684000015258789,8.902000427246094 16.31599998474121,8.902000427246094 16.707000732421875,9.293000221252441 C17.097999572753906,9.684000015258789 17.097999572753906,10.315999984741211 16.707000732421875,10.706999778747559 C16.707000732421875,10.706999778747559 11.706999778747559,15.706999778747559 11.706999778747559,15.706999778747559 C11.51200008392334,15.902000427246094 11.255999565124512,16 11,16 C11,16 11,16 11,16z"></path></g></g></g></g></svg>