<svg xmlns="http://www.w3.org/2000/svg" xmlns:xlink="http://www.w3.org/1999/xlink" viewBox="0 0 512 512" width="512" height="512" style="width: 100%; height: 100%; transform: translate3d(0,0,0);" preserveAspectRatio="xMidYMid meet"><defs><clipPath id="__lottie_element_149"><rect width="512" height="512" x="0" y="0"></rect></clipPath><clipPath id="__lottie_element_151"><path d="M0,0 L24,0 L24,24 L0,24z"></path></clipPath><linearGradient id="__lottie_element_157" spreadMethod="pad" gradientUnits="userSpaceOnUse" x1="8.46399974822998" y1="3.4649999141693115" x2="15.53600025177002" y2="10.53600025177002"><stop offset="0%" stop-color="rgb(255,255,255)" stop-opacity="0.6000000238418579"></stop><stop offset="100%" stop-color="rgb(255,255,255)" stop-opacity="0.30000001192092896"></stop></linearGradient><linearGradient id="__lottie_element_158" spreadMethod="pad" gradientUnits="userSpaceOnUse" x1="7" y1="7" x2="17" y2="7"><stop offset="0%" stop-color="rgb(255,255,255)" stop-opacity="0.6000000238418579"></stop><stop offset="49%" stop-color="rgb(255,255,255)" stop-opacity="0"></stop><stop offset="100%" stop-color="rgb(255,255,255)" stop-opacity="0.30000001192092896"></stop></linearGradient><linearGradient id="__lottie_element_159" spreadMethod="pad" gradientUnits="userSpaceOnUse" x1="6.879000186920166" y1="12.878999710083008" x2="17.121000289916992" y2="23.121000289916992"><stop offset="0%" stop-color="rgb(255,255,255)" stop-opacity="0.6000000238418579"></stop><stop offset="100%" stop-color="rgb(255,255,255)" stop-opacity="0.30000001192092896"></stop></linearGradient><linearGradient id="__lottie_element_160" spreadMethod="pad" gradientUnits="userSpaceOnUse" x1="3" y1="18" x2="21" y2="18"><stop offset="0%" stop-color="rgb(255,255,255)" stop-opacity="0.6000000238418579"></stop><stop offset="49%" stop-color="rgb(255,255,255)" stop-opacity="0"></stop><stop offset="100%" stop-color="rgb(255,255,255)" stop-opacity="0.30000001192092896"></stop></linearGradient></defs><g clip-path="url(#__lottie_element_149)"><g clip-path="url(#__lottie_element_151)" style="display: block;" transform="matrix(21.33333396911621,0,0,21.33333396911621,0,0)" opacity="1"><g style="display: block;" transform="matrix(1,0,0,1,0,0)" opacity="1"><g opacity="1" transform="matrix(1,0,0,1,0,0)"><g opacity="1" transform="matrix(1,0,0,1,0,0)"><path fill="url(#__lottie_element_157)" fill-opacity="1" d=" M12,2 C14.759499549865723,2 17,4.240499973297119 17,7 C17,9.759499549865723 14.759499549865723,12 12,12 C9.240500450134277,12 7,9.759499549865723 7,7 C7,4.240499973297119 9.240500450134277,2 12,2z"></path></g><g opacity="1" transform="matrix(1,0,0,1,0,0)"><path fill="url(#__lottie_element_158)" fill-opacity="1" d=" M12,2 C9.23900032043457,2 7,4.238999843597412 7,7 C7,9.76099967956543 9.23900032043457,12 12,12 C14.76099967956543,12 17,9.76099967956543 17,7 C17,4.238999843597412 14.76099967956543,2 12,2 C12,2 12,2 12,2 C12,2 12,2 12,2z M12,2.5 C14.480999946594238,2.5 16.5,4.519000053405762 16.5,7 C16.5,9.480999946594238 14.480999946594238,11.5 12,11.5 C9.519000053405762,11.5 7.5,9.480999946594238 7.5,7 C7.5,4.519000053405762 9.519000053405762,2.5 12,2.5"></path></g></g><g opacity="1" transform="matrix(1,0,0,1,0,0)"><g opacity="1" transform="matrix(1,0,0,1,0,0)"><path fill="url(#__lottie_element_159)" fill-opacity="1" d=" M18,15 C18,15 6,15 6,15 C4.3429999351501465,15 3,16.343000411987305 3,18 C3,19.656999588012695 4.3429999351501465,21 6,21 C6,21 18,21 18,21 C19.656999588012695,21 21,19.656999588012695 21,18 C21,16.343000411987305 19.656999588012695,15 18,15 C18,15 18,15 18,15z"></path></g><g opacity="1" transform="matrix(1,0,0,1,0,0)"><path fill="url(#__lottie_element_160)" fill-opacity="1" d=" M18,15 C18,15 6,15 6,15 C4.3429999351501465,15 3,16.343000411987305 3,18 C3,19.656999588012695 4.3429999351501465,21 6,21 C6,21 18,21 18,21 C19.656999588012695,21 21,19.656999588012695 21,18 C21,16.343000411987305 19.656999588012695,15 18,15 C18,15 18,15 18,15 C18,15 18,15 18,15z M18,15.5 C19.378000259399414,15.5 20.5,16.621000289916992 20.5,18 C20.5,19.378999710083008 19.378000259399414,20.5 18,20.5 C18,20.5 6,20.5 6,20.5 C4.620999813079834,20.5 3.5,19.378999710083008 3.5,18 C3.5,16.621000289916992 4.620999813079834,15.5 6,15.5 C6,15.5 18,15.5 18,15.5"></path></g></g></g></g></g></svg>