<svg xmlns="http://www.w3.org/2000/svg" xmlns:xlink="http://www.w3.org/1999/xlink" viewBox="0 0 512 512" width="512" height="512" style="width: 100%; height: 100%; transform: translate3d(0,0,0);" preserveAspectRatio="xMidYMid meet"><defs><clipPath id="__lottie_element_189"><rect width="512" height="512" x="0" y="0"></rect></clipPath><clipPath id="__lottie_element_191"><path d="M0,0 L24,0 L24,24 L0,24z"></path></clipPath><linearGradient id="__lottie_element_197" spreadMethod="pad" gradientUnits="userSpaceOnUse" x1="7.171999931335449" y1="4.171999931335449" x2="22.827999114990234" y2="19.827999114990234"><stop offset="0%" stop-color="rgb(255,255,255)" stop-opacity="0.6000000238418579"></stop><stop offset="100%" stop-color="rgb(255,255,255)" stop-opacity="0.30000001192092896"></stop></linearGradient><linearGradient id="__lottie_element_198" spreadMethod="pad" gradientUnits="userSpaceOnUse" x1="7.171999931335449" y1="4.171999931335449" x2="22.827999114990234" y2="19.827999114990234"><stop offset="0%" stop-color="rgb(255,255,255)" stop-opacity="0.6000000238418579"></stop><stop offset="49%" stop-color="rgb(255,255,255)" stop-opacity="0"></stop><stop offset="100%" stop-color="rgb(255,255,255)" stop-opacity="0.30000001192092896"></stop></linearGradient><linearGradient id="__lottie_element_199" spreadMethod="pad" gradientUnits="userSpaceOnUse" x1="2.171999931335449" y1="9.17199993133545" x2="7.828000068664551" y2="14.82800006866455"><stop offset="0%" stop-color="rgb(255,255,255)" stop-opacity="0.699999988079071"></stop><stop offset="52%" stop-color="rgb(255,255,255)" stop-opacity="0.44999998807907104"></stop><stop offset="100%" stop-color="rgb(255,255,255)" stop-opacity="0.550000011920929"></stop></linearGradient><linearGradient id="__lottie_element_200" spreadMethod="pad" gradientUnits="userSpaceOnUse" x1="15.17199993133545" y1="16.172000885009766" x2="20.827999114990234" y2="21.827999114990234"><stop offset="0%" stop-color="rgb(255,255,255)" stop-opacity="0.699999988079071"></stop><stop offset="52%" stop-color="rgb(255,255,255)" stop-opacity="0.44999998807907104"></stop><stop offset="100%" stop-color="rgb(255,255,255)" stop-opacity="0.550000011920929"></stop></linearGradient><linearGradient id="__lottie_element_201" spreadMethod="pad" gradientUnits="userSpaceOnUse" x1="15.17199993133545" y1="2.171999931335449" x2="20.827999114990234" y2="7.828000068664551"><stop offset="0%" stop-color="rgb(255,255,255)" stop-opacity="0.699999988079071"></stop><stop offset="52%" stop-color="rgb(255,255,255)" stop-opacity="0.44999998807907104"></stop><stop offset="100%" stop-color="rgb(255,255,255)" stop-opacity="0.550000011920929"></stop></linearGradient></defs><g clip-path="url(#__lottie_element_189)"><g clip-path="url(#__lottie_element_191)" style="display: block;" transform="matrix(21.33333396911621,0,0,21.33333396911621,0,0)" opacity="1"><g style="display: block;" transform="matrix(1,0,0,1,0,0)" opacity="1"><g opacity="1" transform="matrix(1,0,0,1,0,0)"><g opacity="1" transform="matrix(1,0,0,1,0,0)"><path fill="url(#__lottie_element_197)" fill-opacity="1" d=" M18,15 C17.871999740600586,15 17.75200080871582,15.026000022888184 17.62700080871582,15.038000106811523 C17.62700080871582,15.038000106811523 15.458000183105469,12 15.458000183105469,12 C15.458000183105469,12 17.628000259399414,8.961999893188477 17.628000259399414,8.961999893188477 C17.628000259399414,8.961999893188477 17.628000259399414,8.961999893188477 17.628000259399414,8.961999893188477 C17.75200080871582,8.973999977111816 17.871999740600586,9 18,9 C20.208999633789062,9 22,7.209000110626221 22,5 C22,2.7909998893737793 20.208999633789062,1 18,1 C15.791000366210938,1 14,2.7909998893737793 14,5 C14,5.590000152587891 14.135000228881836,6.144999980926514 14.36400032043457,6.64900016784668 C14.36400032043457,6.64900016784668 11.970999717712402,10 11.970999717712402,10 C11.970999717712402,10 8.444999694824219,10 8.444999694824219,10 C8.444999694824219,10 8.444999694824219,10 8.444999694824219,10 C7.751999855041504,8.809000015258789 6.4770002365112305,8 5,8 C2.7909998893737793,8 1,9.791000366210938 1,12 C1,14.208999633789062 2.7909998893737793,16 5,16 C6.4770002365112305,16 7.752999782562256,15.1899995803833 8.444999694824219,14 C8.444999694824219,14 8.444999694824219,14 8.444999694824219,14 C8.444999694824219,14 11.970999717712402,14 11.970999717712402,14 C11.970999717712402,14 14.36400032043457,17.35099983215332 14.36400032043457,17.35099983215332 C14.135000228881836,17.854999542236328 14,18.40999984741211 14,19 C14,21.208999633789062 15.791000366210938,23 18,23 C20.208999633789062,23 22,21.208999633789062 22,19 C22,16.791000366210938 20.208999633789062,15 18,15 C18,15 18,15 18,15z"></path></g><g opacity="1" transform="matrix(1,0,0,1,0,0)"><path fill="url(#__lottie_element_198)" fill-opacity="1" d=" M18,1 C15.791000366210938,1 14,2.7909998893737793 14,5 C14,5.590000152587891 14.135000228881836,6.144999980926514 14.36400032043457,6.64900016784668 C14.36400032043457,6.64900016784668 11.970999717712402,10 11.970999717712402,10 C11.970999717712402,10 8.444999694824219,10 8.444999694824219,10 C7.751999855041504,8.809000015258789 6.4770002365112305,8 5,8 C2.7909998893737793,8 1,9.791000366210938 1,12 C1,14.208999633789062 2.7909998893737793,16 5,16 C6.4770002365112305,16 7.751999855041504,15.190999984741211 8.444999694824219,14 C8.444999694824219,14 8.444999694824219,14 8.444999694824219,14 C8.444999694824219,14 8.444999694824219,14 8.444999694824219,14 C8.444999694824219,14 8.444999694824219,14 8.444999694824219,14 C8.444999694824219,14 8.444999694824219,14 8.444999694824219,14 C8.444999694824219,14 8.444999694824219,14 8.444999694824219,14 C8.444999694824219,14 11.970999717712402,14 11.970999717712402,14 C11.970999717712402,14 14.36400032043457,17.35099983215332 14.36400032043457,17.35099983215332 C14.135000228881836,17.854999542236328 14,18.40999984741211 14,19 C14,21.208999633789062 15.791000366210938,23 18,23 C20.208999633789062,23 22,21.208999633789062 22,19 C22,16.791000366210938 20.208999633789062,15 18,15 C17.871999740600586,15 17.75200080871582,15.026000022888184 17.62700080871582,15.038000106811523 C17.62700080871582,15.038000106811523 15.458000183105469,12 15.458000183105469,12 C15.458000183105469,12 17.628000259399414,8.961999893188477 17.628000259399414,8.961999893188477 C17.628000259399414,8.961999893188477 17.628000259399414,8.961999893188477 17.628000259399414,8.961999893188477 C17.628000259399414,8.961999893188477 17.628000259399414,8.961999893188477 17.628000259399414,8.961999893188477 C17.628000259399414,8.961999893188477 17.628000259399414,8.961999893188477 17.628000259399414,8.961999893188477 C17.75200080871582,8.973999977111816 17.871999740600586,9 18,9 C20.208999633789062,9 22,7.209000110626221 22,5 C22,2.7909998893737793 20.208999633789062,1 18,1 C18,1 18,1 18,1 C18,1 18,1 18,1z M18,1.5 C19.93000030517578,1.5 21.5,3.069999933242798 21.5,5 C21.5,6.929999828338623 19.93000030517578,8.5 18,8.5 C17.940000534057617,8.5 17.882999420166016,8.491000175476074 17.826000213623047,8.482999801635742 C17.775999069213867,8.47599983215332 17.725000381469727,8.468999862670898 17.673999786376953,8.46500015258789 C17.673999786376953,8.46500015258789 17.38800048828125,8.437999725341797 17.38800048828125,8.437999725341797 C17.38800048828125,8.437999725341797 17.219999313354492,8.67199993133545 17.219999313354492,8.67199993133545 C17.219999313354492,8.67199993133545 15.050000190734863,11.710000038146973 15.050000190734863,11.710000038146973 C15.050000190734863,11.710000038146973 14.843000411987305,12 14.843000411987305,12 C14.843000411987305,12 15.050999641418457,12.291000366210938 15.050999641418457,12.291000366210938 C15.050999641418457,12.291000366210938 17.22100067138672,15.32800006866455 17.22100067138672,15.32800006866455 C17.22100067138672,15.32800006866455 17.38800048828125,15.562000274658203 17.38800048828125,15.562000274658203 C17.38800048828125,15.562000274658203 17.673999786376953,15.53499984741211 17.673999786376953,15.53499984741211 C17.725000381469727,15.529999732971191 17.774999618530273,15.52299976348877 17.826000213623047,15.517000198364258 C17.882999420166016,15.508999824523926 17.940000534057617,15.5 18,15.5 C19.93000030517578,15.5 21.5,17.06999969482422 21.5,19 C21.5,20.93000030517578 19.93000030517578,22.5 18,22.5 C16.06999969482422,22.5 14.5,20.93000030517578 14.5,19 C14.5,18.509000778198242 14.607999801635742,18.02400016784668 14.819999694824219,17.558000564575195 C14.819999694824219,17.558000564575195 14.939000129699707,17.295000076293945 14.939000129699707,17.295000076293945 C14.939000129699707,17.295000076293945 14.770999908447266,17.059999465942383 14.770999908447266,17.059999465942383 C14.770999908447266,17.059999465942383 12.378000259399414,13.708999633789062 12.378000259399414,13.708999633789062 C12.378000259399414,13.708999633789062 12.227999687194824,13.5 12.227999687194824,13.5 C12.227999687194824,13.5 11.970999717712402,13.5 11.970999717712402,13.5 C11.970999717712402,13.5 8.444999694824219,13.5 8.444999694824219,13.5 C8.444999694824219,13.5 8.157999992370605,13.5 8.157999992370605,13.5 C8.157999992370605,13.5 8.012999534606934,13.748000144958496 8.012999534606934,13.748000144958496 C7.375,14.845000267028809 6.248000144958496,15.5 5,15.5 C3.069999933242798,15.5 1.5,13.930000305175781 1.5,12 C1.5,10.069999694824219 3.069999933242798,8.5 5,8.5 C6.248000144958496,8.5 7.375,9.154999732971191 8.012999534606934,10.25100040435791 C8.012999534606934,10.25100040435791 8.157999992370605,10.5 8.157999992370605,10.5 C8.157999992370605,10.5 8.446000099182129,10.5 8.446000099182129,10.5 C8.446000099182129,10.5 11.972000122070312,10.5 11.972000122070312,10.5 C11.972000122070312,10.5 12.229000091552734,10.5 12.229000091552734,10.5 C12.229000091552734,10.5 12.378999710083008,10.291000366210938 12.378999710083008,10.291000366210938 C12.378999710083008,10.291000366210938 14.77299976348877,6.940000057220459 14.77299976348877,6.940000057220459 C14.77299976348877,6.940000057220459 14.940999984741211,6.704999923706055 14.940999984741211,6.704999923706055 C14.940999984741211,6.704999923706055 14.819999694824219,6.441999912261963 14.819999694824219,6.441999912261963 C14.607999801635742,5.97599983215332 14.5,5.491000175476074 14.5,5 C14.5,3.069999933242798 16.06999969482422,1.5 18,1.5"></path></g></g><g opacity="1" transform="matrix(1,0,0,1,0,0)"><path fill="url(#__lottie_element_199)" fill-opacity="1" d=" M5,8 C2.7909998893737793,8 1,9.791000366210938 1,12 C1,14.208999633789062 2.7909998893737793,16 5,16 C7.209000110626221,16 9,14.208999633789062 9,12 C9,9.791000366210938 7.209000110626221,8 5,8 C5,8 5,8 5,8z"></path></g><g opacity="1" transform="matrix(1,0,0,1,0,0)"><path fill="url(#__lottie_element_200)" fill-opacity="1" d=" M22,19 C22,16.791000366210938 20.208999633789062,15 18,15 C15.791000366210938,15 14,16.791000366210938 14,19 C14,21.208999633789062 15.791000366210938,23 18,23 C20.208999633789062,23 22,21.208999633789062 22,19 C22,19 22,19 22,19z"></path></g><g opacity="1" transform="matrix(1,0,0,1,0,0)"><path fill="url(#__lottie_element_201)" fill-opacity="1" d=" M22,5 C22,2.7909998893737793 20.208999633789062,1 18,1 C15.791000366210938,1 14,2.7909998893737793 14,5 C14,7.209000110626221 15.791000366210938,9 18,9 C20.208999633789062,9 22,7.209000110626221 22,5 C22,5 22,5 22,5z"></path></g></g></g></g></svg>