<svg xmlns="http://www.w3.org/2000/svg" xmlns:xlink="http://www.w3.org/1999/xlink" viewBox="0 0 512 512" width="512" height="512" style="width: 100%; height: 100%; transform: translate3d(0,0,0);" preserveAspectRatio="xMidYMid meet"><defs><clipPath id="__lottie_element_408"><rect width="512" height="512" x="0" y="0"></rect></clipPath><clipPath id="__lottie_element_410"><path d="M0,0 L24,0 L24,24 L0,24z"></path></clipPath><linearGradient id="__lottie_element_416" spreadMethod="pad" gradientUnits="userSpaceOnUse" x1="8.46399974822998" y1="3.4649999141693115" x2="15.53600025177002" y2="10.53600025177002"><stop offset="0%" stop-color="rgb(255,255,255)" stop-opacity="0.6000000238418579"></stop><stop offset="100%" stop-color="rgb(255,255,255)" stop-opacity="0.30000001192092896"></stop></linearGradient><linearGradient id="__lottie_element_417" spreadMethod="pad" gradientUnits="userSpaceOnUse" x1="7" y1="7" x2="17" y2="7"><stop offset="0%" stop-color="rgb(255,255,255)" stop-opacity="0.6000000238418579"></stop><stop offset="49%" stop-color="rgb(255,255,255)" stop-opacity="0"></stop><stop offset="100%" stop-color="rgb(255,255,255)" stop-opacity="0.30000001192092896"></stop></linearGradient><linearGradient id="__lottie_element_418" spreadMethod="pad" gradientUnits="userSpaceOnUse" x1="6.298999786376953" y1="13.458000183105469" x2="14.402000427246094" y2="21.559999465942383"><stop offset="0%" stop-color="rgb(255,255,255)" stop-opacity="0.6000000238418579"></stop><stop offset="100%" stop-color="rgb(255,255,255)" stop-opacity="0.30000001192092896"></stop></linearGradient><linearGradient id="__lottie_element_419" spreadMethod="pad" gradientUnits="userSpaceOnUse" x1="3" y1="18" x2="16.926000595092773" y2="18"><stop offset="0%" stop-color="rgb(255,255,255)" stop-opacity="0.6000000238418579"></stop><stop offset="49%" stop-color="rgb(255,255,255)" stop-opacity="0"></stop><stop offset="100%" stop-color="rgb(255,255,255)" stop-opacity="0.30000001192092896"></stop></linearGradient><linearGradient id="__lottie_element_420" spreadMethod="pad" gradientUnits="userSpaceOnUse" x1="15.46399974822998" y1="15.46399974822998" x2="22.53499984741211" y2="22.53499984741211"><stop offset="0%" stop-color="rgb(255,255,255)" stop-opacity="0.6000000238418579"></stop><stop offset="100%" stop-color="rgb(255,255,255)" stop-opacity="0.30000001192092896"></stop></linearGradient><linearGradient id="__lottie_element_421" spreadMethod="pad" gradientUnits="userSpaceOnUse" x1="15.46399974822998" y1="15.46399974822998" x2="22.53499984741211" y2="22.53499984741211"><stop offset="0%" stop-color="rgb(255,255,255)" stop-opacity="0.6000000238418579"></stop><stop offset="49%" stop-color="rgb(255,255,255)" stop-opacity="0"></stop><stop offset="100%" stop-color="rgb(255,255,255)" stop-opacity="0.30000001192092896"></stop></linearGradient><linearGradient id="__lottie_element_422" spreadMethod="pad" gradientUnits="userSpaceOnUse" x1="15.5" y1="19" x2="22.5" y2="19"><stop offset="0%" stop-color="rgb(255,255,255)" stop-opacity="0.4000000059604645"></stop><stop offset="100%" stop-color="rgb(255,255,255)" stop-opacity="0.20000000298023224"></stop></linearGradient></defs><g clip-path="url(#__lottie_element_408)"><g clip-path="url(#__lottie_element_410)" style="display: block;" transform="matrix(21.33333396911621,0,0,21.33333396911621,0,0)" opacity="1"><g style="display: block;" transform="matrix(1,0,0,1,0,0)" opacity="1"><g opacity="1" transform="matrix(1,0,0,1,0,0)"><g opacity="1" transform="matrix(1,0,0,1,0,0)"><path fill="url(#__lottie_element_416)" fill-opacity="1" d=" M12,2 C14.759499549865723,2 17,4.240499973297119 17,7 C17,9.759499549865723 14.759499549865723,12 12,12 C9.240500450134277,12 7,9.759499549865723 7,7 C7,4.240499973297119 9.240500450134277,2 12,2z"></path></g><g opacity="1" transform="matrix(1,0,0,1,0,0)"><path fill="url(#__lottie_element_417)" fill-opacity="1" d=" M12,2 C9.23900032043457,2 7,4.238999843597412 7,7 C7,9.76099967956543 9.23900032043457,12 12,12 C14.76099967956543,12 17,9.76099967956543 17,7 C17,4.238999843597412 14.76099967956543,2 12,2 C12,2 12,2 12,2 C12,2 12,2 12,2z M12,2.5 C14.480999946594238,2.5 16.5,4.519000053405762 16.5,7 C16.5,9.480999946594238 14.480999946594238,11.5 12,11.5 C9.519000053405762,11.5 7.5,9.480999946594238 7.5,7 C7.5,4.519000053405762 9.519000053405762,2.5 12,2.5"></path></g></g><g opacity="1" transform="matrix(1,0,0,1,0,0)"><g opacity="1" transform="matrix(1,0,0,1,0,0)"><path fill="url(#__lottie_element_418)" fill-opacity="1" d=" M14.539999961853027,19 C14.539999961853027,17.35700035095215 15.281999588012695,15.977999687194824 16.926000595092773,15 C16.926000595092773,15 6,15 6,15 C4.3429999351501465,15 3,16.343000411987305 3,18 C3,19.656999588012695 4.3429999351501465,21 6,21 C6,21 14.961999893188477,21 14.961999893188477,21 C14.694000244140625,20.386999130249023 14.539999961853027,19.711999893188477 14.539999961853027,19 C14.539999961853027,19 14.539999961853027,19 14.539999961853027,19z"></path></g><g opacity="1" transform="matrix(1,0,0,1,0,0)"><path fill="url(#__lottie_element_419)" fill-opacity="1" d=" M16.926000595092773,15 C16.926000595092773,15 6,15 6,15 C4.3429999351501465,15 3,16.343000411987305 3,18 C3,19.656999588012695 4.3429999351501465,21 6,21 C6,21 14.961999893188477,21 14.961999893188477,21 C14.694000244140625,20.386999130249023 14.539999961853027,19.711999893188477 14.539999961853027,19 C14.539999961853027,17.35700035095215 15.281999588012695,15.977999687194824 16.926000595092773,15 C16.926000595092773,15 16.926000595092773,15 16.926000595092773,15 C16.926000595092773,15 16.926000595092773,15 16.926000595092773,15z M15.454000473022461,15.5 C14.513999938964844,16.43600082397461 14.038999557495117,17.607999801635742 14.038999557495117,19 C14.038999557495117,19.509000778198242 14.109999656677246,20.011999130249023 14.25,20.5 C14.25,20.5 6,20.5 6,20.5 C4.620999813079834,20.5 3.5,19.378999710083008 3.5,18 C3.5,16.621000289916992 4.620999813079834,15.5 6,15.5 C6,15.5 15.454000473022461,15.5 15.454000473022461,15.5"></path></g></g><g opacity="1" transform="matrix(1,0,0,1,0,0)"><g opacity="1" transform="matrix(1,0,0,1,0,0)"><path fill="url(#__lottie_element_420)" fill-opacity="1" d=" M19,14 C21.75950050354004,14 24,16.24049949645996 24,19 C24,21.75950050354004 21.75950050354004,24 19,24 C16.24049949645996,24 14,21.75950050354004 14,19 C14,16.24049949645996 16.24049949645996,14 19,14z"></path></g><g opacity="1" transform="matrix(1,0,0,1,0,0)"><path fill="url(#__lottie_element_421)" fill-opacity="1" d=" M19,14 C16.23900032043457,14 14,16.23900032043457 14,19 C14,21.76099967956543 16.23900032043457,24 19,24 C21.76099967956543,24 24,21.76099967956543 24,19 C24,16.23900032043457 21.76099967956543,14 19,14 C19,14 19,14 19,14 C19,14 19,14 19,14z M19,14.5 C21.481000900268555,14.5 23.5,16.518999099731445 23.5,19 C23.5,21.481000900268555 21.481000900268555,23.5 19,23.5 C16.518999099731445,23.5 14.5,21.481000900268555 14.5,19 C14.5,16.518999099731445 16.518999099731445,14.5 19,14.5"></path></g></g><g opacity="1" transform="matrix(1,0,0,1,0,0)"><path fill="url(#__lottie_element_422)" fill-opacity="1" d=" M21.5,18 C21.5,18 20,18 20,18 C20,18 20,16.5 20,16.5 C20,15.947999954223633 19.552000045776367,15.5 19,15.5 C18.447999954223633,15.5 18,15.947999954223633 18,16.5 C18,16.5 18,18 18,18 C18,18 16.5,18 16.5,18 C15.947999954223633,18 15.5,18.447999954223633 15.5,19 C15.5,19.552000045776367 15.947999954223633,20 16.5,20 C16.5,20 18,20 18,20 C18,20 18,21.5 18,21.5 C18,22.052000045776367 18.447999954223633,22.5 19,22.5 C19.552000045776367,22.5 20,22.052000045776367 20,21.5 C20,21.5 20,20 20,20 C20,20 21.5,20 21.5,20 C22.052000045776367,20 22.5,19.552000045776367 22.5,19 C22.5,18.447999954223633 22.052000045776367,18 21.5,18 C21.5,18 21.5,18 21.5,18z"></path></g></g></g></g></svg>