<svg xmlns="http://www.w3.org/2000/svg" xmlns:xlink="http://www.w3.org/1999/xlink" viewBox="0 0 512 512" width="512" height="512" style="width: 100%; height: 100%; transform: translate3d(0,0,0);" preserveAspectRatio="xMidYMid meet"><defs><clipPath id="__lottie_element_277"><rect width="512" height="512" x="0" y="0"></rect></clipPath><clipPath id="__lottie_element_279"><path d="M0,0 L24,0 L24,24 L0,24z"></path></clipPath><linearGradient id="__lottie_element_285" spreadMethod="pad" gradientUnits="userSpaceOnUse" x1="2.3359999656677246" y1="14.836000442504883" x2="7.664000034332275" y2="20.163999557495117"><stop offset="0%" stop-color="rgb(255,255,255)" stop-opacity="0.6000000238418579"></stop><stop offset="100%" stop-color="rgb(255,255,255)" stop-opacity="0.30000001192092896"></stop></linearGradient><linearGradient id="__lottie_element_286" spreadMethod="pad" gradientUnits="userSpaceOnUse" x1="2.3359999656677246" y1="14.836000442504883" x2="7.664000034332275" y2="20.163999557495117"><stop offset="0%" stop-color="rgb(255,255,255)" stop-opacity="0.6000000238418579"></stop><stop offset="49%" stop-color="rgb(255,255,255)" stop-opacity="0"></stop><stop offset="100%" stop-color="rgb(255,255,255)" stop-opacity="0.30000001192092896"></stop></linearGradient><linearGradient id="__lottie_element_287" spreadMethod="pad" gradientUnits="userSpaceOnUse" x1="15.586000442504883" y1="12.586000442504883" x2="22.413999557495117" y2="19.413999557495117"><stop offset="0%" stop-color="rgb(255,255,255)" stop-opacity="0.6000000238418579"></stop><stop offset="100%" stop-color="rgb(255,255,255)" stop-opacity="0.30000001192092896"></stop></linearGradient><linearGradient id="__lottie_element_288" spreadMethod="pad" gradientUnits="userSpaceOnUse" x1="15.586000442504883" y1="12.586000442504883" x2="22.413999557495117" y2="19.413999557495117"><stop offset="0%" stop-color="rgb(255,255,255)" stop-opacity="0.6000000238418579"></stop><stop offset="49%" stop-color="rgb(255,255,255)" stop-opacity="0"></stop><stop offset="100%" stop-color="rgb(255,255,255)" stop-opacity="0.30000001192092896"></stop></linearGradient><linearGradient id="__lottie_element_289" spreadMethod="pad" gradientUnits="userSpaceOnUse" x1="7.835999965667725" y1="10.336000442504883" x2="16.163999557495117" y2="18.663999557495117"><stop offset="0%" stop-color="rgb(255,255,255)" stop-opacity="0.6000000238418579"></stop><stop offset="100%" stop-color="rgb(255,255,255)" stop-opacity="0.30000001192092896"></stop></linearGradient><linearGradient id="__lottie_element_290" spreadMethod="pad" gradientUnits="userSpaceOnUse" x1="7.835999965667725" y1="10.336000442504883" x2="16.163999557495117" y2="18.663999557495117"><stop offset="0%" stop-color="rgb(255,255,255)" stop-opacity="0.6000000238418579"></stop><stop offset="49%" stop-color="rgb(255,255,255)" stop-opacity="0"></stop><stop offset="100%" stop-color="rgb(255,255,255)" stop-opacity="0.30000001192092896"></stop></linearGradient><linearGradient id="__lottie_element_291" spreadMethod="pad" gradientUnits="userSpaceOnUse" x1="7.585999965667725" y1="2.5859999656677246" x2="16.413999557495117" y2="11.413999557495117"><stop offset="0%" stop-color="rgb(255,255,255)" stop-opacity="0.6000000238418579"></stop><stop offset="100%" stop-color="rgb(255,255,255)" stop-opacity="0.30000001192092896"></stop></linearGradient><linearGradient id="__lottie_element_292" spreadMethod="pad" gradientUnits="userSpaceOnUse" x1="3" y1="6" x2="21" y2="6"><stop offset="0%" stop-color="rgb(255,255,255)" stop-opacity="0.6000000238418579"></stop><stop offset="49%" stop-color="rgb(255,255,255)" stop-opacity="0"></stop><stop offset="100%" stop-color="rgb(255,255,255)" stop-opacity="0.30000001192092896"></stop></linearGradient><linearGradient id="__lottie_element_293" spreadMethod="pad" gradientUnits="userSpaceOnUse" x1="17.586000442504883" y1="4.585999965667725" x2="20.413999557495117" y2="7.414000034332275"><stop offset="0%" stop-color="rgb(255,255,255)" stop-opacity="0.699999988079071"></stop><stop offset="52%" stop-color="rgb(255,255,255)" stop-opacity="0.44999998807907104"></stop><stop offset="100%" stop-color="rgb(255,255,255)" stop-opacity="0.550000011920929"></stop></linearGradient><linearGradient id="__lottie_element_294" spreadMethod="pad" gradientUnits="userSpaceOnUse" x1="10.586000442504883" y1="2.5859999656677246" x2="13.413999557495117" y2="5.414000034332275"><stop offset="0%" stop-color="rgb(255,255,255)" stop-opacity="0.699999988079071"></stop><stop offset="52%" stop-color="rgb(255,255,255)" stop-opacity="0.44999998807907104"></stop><stop offset="100%" stop-color="rgb(255,255,255)" stop-opacity="0.550000011920929"></stop></linearGradient><linearGradient id="__lottie_element_295" spreadMethod="pad" gradientUnits="userSpaceOnUse" x1="3.5859999656677246" y1="6.585999965667725" x2="6.414000034332275" y2="9.413999557495117"><stop offset="0%" stop-color="rgb(255,255,255)" stop-opacity="0.699999988079071"></stop><stop offset="52%" stop-color="rgb(255,255,255)" stop-opacity="0.44999998807907104"></stop><stop offset="100%" stop-color="rgb(255,255,255)" stop-opacity="0.550000011920929"></stop></linearGradient></defs><g clip-path="url(#__lottie_element_277)"><g clip-path="url(#__lottie_element_279)" style="display: block;" transform="matrix(21.33333396911621,0,0,21.33333396911621,0,0)" opacity="1"><g style="display: block;" transform="matrix(1,0,0,1,0,0)" opacity="1"><g opacity="1" transform="matrix(1,0,0,1,0,0)"><g opacity="1" transform="matrix(1,0,0,1,0,0)"><path fill="url(#__lottie_element_285)" fill-opacity="1" d=" M6,21 C6,21 4,21 4,21 C2.8949999809265137,21 2,20.104999542236328 2,19 C2,19 2,16 2,16 C2,14.895000457763672 2.8949999809265137,14 4,14 C4,14 6,14 6,14 C7.105000019073486,14 8,14.895000457763672 8,16 C8,16 8,19 8,19 C8,20.104999542236328 7.105000019073486,21 6,21 C6,21 6,21 6,21z"></path></g><g opacity="1" transform="matrix(1,0,0,1,0,0)"><path fill="url(#__lottie_element_286)" fill-opacity="1" d=" M6,14 C6,14 4,14 4,14 C2.8949999809265137,14 2,14.895000457763672 2,16 C2,16 2,19 2,19 C2,20.104999542236328 2.8949999809265137,21 4,21 C4,21 6,21 6,21 C7.105000019073486,21 8,20.104999542236328 8,19 C8,19 8,16 8,16 C8,14.895000457763672 7.105000019073486,14 6,14 C6,14 6,14 6,14 C6,14 6,14 6,14z M6,14.5 C6.827000141143799,14.5 7.5,15.17300033569336 7.5,16 C7.5,16 7.5,19 7.5,19 C7.5,19.82699966430664 6.827000141143799,20.5 6,20.5 C6,20.5 4,20.5 4,20.5 C3.1730000972747803,20.5 2.5,19.82699966430664 2.5,19 C2.5,19 2.5,16 2.5,16 C2.5,15.17300033569336 3.1730000972747803,14.5 4,14.5 C4,14.5 6,14.5 6,14.5"></path></g></g><g opacity="1" transform="matrix(1,0,0,1,0,0)"><g opacity="1" transform="matrix(1,0,0,1,0,0)"><path fill="url(#__lottie_element_287)" fill-opacity="1" d=" M20,21 C20,21 18,21 18,21 C16.895000457763672,21 16,20.104999542236328 16,19 C16,19 16,13 16,13 C16,11.895000457763672 16.895000457763672,11 18,11 C18,11 20,11 20,11 C21.104999542236328,11 22,11.895000457763672 22,13 C22,13 22,19 22,19 C22,20.104999542236328 21.104999542236328,21 20,21 C20,21 20,21 20,21z"></path></g><g opacity="1" transform="matrix(1,0,0,1,0,0)"><path fill="url(#__lottie_element_288)" fill-opacity="1" d=" M20,11 C20,11 18,11 18,11 C16.895000457763672,11 16,11.895000457763672 16,13 C16,13 16,19 16,19 C16,20.104999542236328 16.895000457763672,21 18,21 C18,21 20,21 20,21 C21.104999542236328,21 22,20.104999542236328 22,19 C22,19 22,13 22,13 C22,11.895000457763672 21.104999542236328,11 20,11 C20,11 20,11 20,11 C20,11 20,11 20,11z M20,11.5 C20.82699966430664,11.5 21.5,12.17300033569336 21.5,13 C21.5,13 21.5,19 21.5,19 C21.5,19.82699966430664 20.82699966430664,20.5 20,20.5 C20,20.5 18,20.5 18,20.5 C17.17300033569336,20.5 16.5,19.82699966430664 16.5,19 C16.5,19 16.5,13 16.5,13 C16.5,12.17300033569336 17.17300033569336,11.5 18,11.5 C18,11.5 20,11.5 20,11.5"></path></g></g><g opacity="1" transform="matrix(1,0,0,1,0,0)"><g opacity="1" transform="matrix(1,0,0,1,0,0)"><path fill="url(#__lottie_element_289)" fill-opacity="1" d=" M13,21 C13,21 11,21 11,21 C9.895000457763672,21 9,20.104999542236328 9,19 C9,19 9,10 9,10 C9,8.895000457763672 9.895000457763672,8 11,8 C11,8 13,8 13,8 C14.104999542236328,8 15,8.895000457763672 15,10 C15,10 15,19 15,19 C15,20.104999542236328 14.104999542236328,21 13,21 C13,21 13,21 13,21z"></path></g><g opacity="1" transform="matrix(1,0,0,1,0,0)"><path fill="url(#__lottie_element_290)" fill-opacity="1" d=" M13,8 C13,8 11,8 11,8 C9.895000457763672,8 9,8.895000457763672 9,10 C9,10 9,19 9,19 C9,20.104999542236328 9.895000457763672,21 11,21 C11,21 13,21 13,21 C14.104999542236328,21 15,20.104999542236328 15,19 C15,19 15,10 15,10 C15,8.895000457763672 14.104999542236328,8 13,8 C13,8 13,8 13,8 C13,8 13,8 13,8z M13,8.5 C13.82699966430664,8.5 14.5,9.17300033569336 14.5,10 C14.5,10 14.5,19 14.5,19 C14.5,19.82699966430664 13.82699966430664,20.5 13,20.5 C13,20.5 11,20.5 11,20.5 C10.17300033569336,20.5 9.5,19.82699966430664 9.5,19 C9.5,19 9.5,10 9.5,10 C9.5,9.17300033569336 10.17300033569336,8.5 11,8.5 C11,8.5 13,8.5 13,8.5"></path></g></g><g opacity="1" transform="matrix(1,0,0,1,0,0)"><g opacity="1" transform="matrix(1,0,0,1,0,0)"><path fill="url(#__lottie_element_291)" fill-opacity="1" d=" M19,4 C18.486000061035156,4 18.02199935913086,4.199999809265137 17.66699981689453,4.519000053405762 C17.66699981689453,4.519000053405762 13.916999816894531,3.4619998931884766 13.916999816894531,3.4619998931884766 C13.680999755859375,2.621000051498413 12.916999816894531,2 12,2 C10.909000396728516,2 10.026000022888184,2.875 10.003999710083008,3.9609999656677246 C10.003999710083008,3.9609999656677246 5.999000072479248,6.2769999504089355 5.999000072479248,6.2769999504089355 C5.703999996185303,6.105000019073486 5.366000175476074,6 5,6 C3.8949999809265137,6 3,6.894999980926514 3,8 C3,9.104999542236328 3.8949999809265137,10 5,10 C6.1020002365112305,10 6.99399995803833,9.109000205993652 6.999000072479248,8.008999824523926 C6.999000072479248,8.008999824523926 10.975000381469727,5.709000110626221 10.975000381469727,5.709000110626221 C11.276000022888184,5.889999866485596 11.62399959564209,6 12,6 C12.557999610900879,6 13.062000274658203,5.769999980926514 13.425000190734863,5.4019999504089355 C13.425000190734863,5.4019999504089355 17.047000885009766,6.422999858856201 17.047000885009766,6.422999858856201 C17.240999221801758,7.323999881744385 18.041000366210938,8 19,8 C20.104999542236328,8 21,7.105000019073486 21,6 C21,4.894999980926514 20.104999542236328,4 19,4 C19,4 19,4 19,4z"></path></g><g opacity="1" transform="matrix(1,0,0,1,0,0)"><path fill="url(#__lottie_element_292)" fill-opacity="1" d=" M12,2 C10.909000396728516,2 10.026000022888184,2.875 10.003999710083008,3.9609999656677246 C10.003999710083008,3.9609999656677246 5.999000072479248,6.2769999504089355 5.999000072479248,6.2769999504089355 C5.703999996185303,6.105000019073486 5.366000175476074,6 5,6 C3.8949999809265137,6 3,6.894999980926514 3,8 C3,9.104999542236328 3.8949999809265137,10 5,10 C6.1020002365112305,10 6.99399995803833,9.109000205993652 6.999000072479248,8.008999824523926 C6.999000072479248,8.008999824523926 10.975000381469727,5.709000110626221 10.975000381469727,5.709000110626221 C11.276000022888184,5.889999866485596 11.62399959564209,6 12,6 C12.557999610900879,6 13.062000274658203,5.769999980926514 13.425000190734863,5.4019999504089355 C13.425000190734863,5.4019999504089355 17.047000885009766,6.422999858856201 17.047000885009766,6.422999858856201 C17.240999221801758,7.323999881744385 18.041000366210938,8 19,8 C20.104999542236328,8 21,7.105000019073486 21,6 C21,4.894999980926514 20.104999542236328,4 19,4 C18.486000061035156,4 18.02199935913086,4.199999809265137 17.66699981689453,4.519000053405762 C17.66699981689453,4.519000053405762 13.916999816894531,3.4619998931884766 13.916999816894531,3.4619998931884766 C13.680999755859375,2.621000051498413 12.916999816894531,2 12,2 C12,2 12,2 12,2 C12,2 12,2 12,2z M12,2.5 C12.663999557495117,2.5 13.255000114440918,2.9509999752044678 13.435999870300293,3.5969998836517334 C13.435999870300293,3.5969998836517334 13.51200008392334,3.867000102996826 13.51200008392334,3.867000102996826 C13.51200008392334,3.867000102996826 13.781999588012695,3.943000078201294 13.781999588012695,3.943000078201294 C13.781999588012695,3.943000078201294 17.531999588012695,5 17.531999588012695,5 C17.531999588012695,5 17.797000885009766,5.074999809265137 17.797000885009766,5.074999809265137 C17.797000885009766,5.074999809265137 18.00200080871582,4.890999794006348 18.00200080871582,4.890999794006348 C18.2810001373291,4.638999938964844 18.63599967956543,4.5 19,4.5 C19.82699966430664,4.5 20.5,5.172999858856201 20.5,6 C20.5,6.827000141143799 19.82699966430664,7.5 19,7.5 C18.298999786376953,7.5 17.683000564575195,7.002999782562256 17.53499984741211,6.316999912261963 C17.53499984741211,6.316999912261963 17.472000122070312,6.0229997634887695 17.472000122070312,6.0229997634887695 C17.472000122070312,6.0229997634887695 17.18199920654297,5.940999984741211 17.18199920654297,5.940999984741211 C17.18199920654297,5.940999984741211 13.5600004196167,4.920000076293945 13.5600004196167,4.920000076293945 C13.5600004196167,4.920000076293945 13.274999618530273,4.840000152587891 13.274999618530273,4.840000152587891 C13.274999618530273,4.840000152587891 13.067999839782715,5.051000118255615 13.067999839782715,5.051000118255615 C12.782999992370605,5.341000080108643 12.404000282287598,5.5 12,5.5 C11.732999801635742,5.5 11.475000381469727,5.426000118255615 11.232999801635742,5.28000020980835 C11.232999801635742,5.28000020980835 10.979999542236328,5.129000186920166 10.979999542236328,5.129000186920166 C10.979999542236328,5.129000186920166 10.725000381469727,5.2769999504089355 10.725000381469727,5.2769999504089355 C10.725000381469727,5.2769999504089355 6.749000072479248,7.577000141143799 6.749000072479248,7.577000141143799 C6.749000072479248,7.577000141143799 6.5,7.71999979019165 6.5,7.71999979019165 C6.5,7.71999979019165 6.499000072479248,8.006999969482422 6.499000072479248,8.006999969482422 C6.494999885559082,8.829999923706055 5.822999954223633,9.5 5,9.5 C4.172999858856201,9.5 3.5,8.82699966430664 3.5,8 C3.5,7.172999858856201 4.172999858856201,6.5 5,6.5 C5.257999897003174,6.5 5.508999824523926,6.570000171661377 5.748000144958496,6.709000110626221 C5.748000144958496,6.709000110626221 5.999000072479248,6.855000019073486 5.999000072479248,6.855000019073486 C5.999000072479248,6.855000019073486 6.25,6.710000038146973 6.25,6.710000038146973 C6.25,6.710000038146973 10.255000114440918,4.39300012588501 10.255000114440918,4.39300012588501 C10.255000114440918,4.39300012588501 10.49899959564209,4.251999855041504 10.49899959564209,4.251999855041504 C10.49899959564209,4.251999855041504 10.505000114440918,3.9700000286102295 10.505000114440918,3.9700000286102295 C10.520000457763672,3.1600000858306885 11.190999984741211,2.5 12,2.5"></path></g></g><g opacity="1" transform="matrix(1,0,0,1,0,0)"><path fill="url(#__lottie_element_293)" fill-opacity="1" d=" M19,4 C20.10379981994629,4 21,4.896200180053711 21,6 C21,7.103799819946289 20.10379981994629,8 19,8 C17.89620018005371,8 17,7.103799819946289 17,6 C17,4.896200180053711 17.89620018005371,4 19,4z"></path></g><g opacity="1" transform="matrix(1,0,0,1,0,0)"><path fill="url(#__lottie_element_294)" fill-opacity="1" d=" M12,2 C13.103799819946289,2 14,2.896199941635132 14,4 C14,5.103799819946289 13.103799819946289,6 12,6 C10.896200180053711,6 10,5.103799819946289 10,4 C10,2.896199941635132 10.896200180053711,2 12,2z"></path></g><g opacity="1" transform="matrix(1,0,0,1,0,0)"><path fill="url(#__lottie_element_295)" fill-opacity="1" d=" M5,6 C6.103799819946289,6 7,6.896200180053711 7,8 C7,9.103799819946289 6.103799819946289,10 5,10 C3.896199941635132,10 3,9.103799819946289 3,8 C3,6.896200180053711 3.896199941635132,6 5,6z"></path></g></g></g></g></svg>